<?xml version="1.0" encoding="UTF-8"?>
<!DOCTYPE svg PUBLIC "-//W3C//DTD SVG 1.1//EN" "http://www.w3.org/Graphics/SVG/1.1/DTD/svg11.dtd">
<!-- Creator: CorelDRAW X8 -->
<svg xmlns="http://www.w3.org/2000/svg" xml:space="preserve" width="104.987mm" height="75.3532mm" version="1.1" style="shape-rendering:geometricPrecision; text-rendering:geometricPrecision; image-rendering:optimizeQuality; fill-rule:evenodd; clip-rule:evenodd"
viewBox="0 0 104987 75353"
 xmlns:xlink="http://www.w3.org/1999/xlink">
 <defs>
  <style type="text/css">
   <![CDATA[
    .fil3 {fill:black}
    .fil2 {fill:#6A91CC}
    .fil1 {fill:#FF0483}
    .fil0 {fill:#FFEE00}
    .fil4 {fill:black;fill-rule:nonzero}
   ]]>
  </style>
 </defs>
 <g id="Слой_x0020_1">
  <metadata id="CorelCorpID_0Corel-Layer"/>
  <g id="_2832063274896">
   <g>
    <path class="fil0" d="M12415 26322c-303,1425 -494,2887 -664,4356 1208,-3960 2456,-7402 3907,-8264 1611,-959 2812,1152 3655,3919 1514,4968 1881,10106 1512,15222 -164,2277 -1101,12205 -4536,11582 -1618,-294 -2956,-3822 -4210,-8298 69,2363 322,4463 779,6271 465,1841 2151,6272 4538,6139 5155,-285 6216,-16021 6142,-19859 -65,-3410 -1490,-19180 -6098,-19289 -2626,-62 -4571,6077 -5025,8221z"/>
    <path class="fil1" d="M25070 27618c-834,252 -1671,551 -2494,866l54 311c3337,-641 6181,-953 7429,-221 1615,949 346,3020 -1672,5093 -3622,3721 -7946,6521 -12605,8665 -2074,954 -11224,4921 -12334,1611 -523,-1559 1923,-4432 5239,-7690 -2037,1200 -3755,2434 -5118,3706 -1388,1296 -4458,4909 -3190,6937 2736,4378 17033,-2281 20359,-4196 2956,-1701 16085,-10555 13958,-14644 -1212,-2331 -7528,-1074 -9626,-438z"/>
    <path class="fil2" d="M9936 27618c734,222 1393,451 2118,723 -12,19 -31,312 -55,382 -3186,-595 -5847,-856 -7051,-149 -1616,950 -347,3020 1671,5093 3622,3722 7946,6521 12606,8665 2074,954 11223,4921 12333,1611 441,-1313 -1225,-3559 -3743,-6182l406 -315c1224,821 2301,1660 3216,2513 1389,1295 4458,4909 3190,6937 -2736,4378 -17033,-2281 -20359,-4196 -2956,-1701 -16084,-10555 -13957,-14644 1211,-2331 7527,-1073 9625,-438zm2509 872c556,212 1074,421 1627,647 -588,-123 -1161,-240 -1725,-348l98 -299z"/>
   </g>
   <path class="fil3" d="M60299 26581c0,5021 0,10041 0,15062l202 0 4709 0 0 -4421 8513 0 0 4421 4709 0c131,-387 202,-800 202,-1230l0 -1148c0,-1921 -1427,-3524 -3274,-3802 -181,-28 -365,-42 -553,-43 188,-1 372,-15 553,-43 1847,-278 3274,-1881 3274,-3803l0 -1147c0,-2115 -1730,-3846 -3845,-3846 -4830,0 -9660,0 -14490,0zm4911 7244l0 -3847 6589 0c1059,0 1924,865 1924,1924 0,1058 -865,1923 -1924,1923l-6589 0z"/>
   <polygon class="fil3" points="92999,36694 92503,35593 90878,31990 90353,30825 88439,26581 86001,26581 84528,26581 81090,26581 81090,41643 86001,41643 86001,30825 90878,41643 92999,41643 95120,41643 99997,30825 99997,41643 104908,41643 104908,26581 101470,26581 99997,26581 97558,26581 95645,30825 95120,31990 93495,35593 "/>
   <path class="fil4" d="M70056 54981l-835 -2600 490 0 441 1501 156 558c7,-27 55,-206 143,-536l438 -1523 480 0 417 1510 136 495 159 -502 477 -1503 456 0 -868 2600 -484 0 -439 -1555 -111 -445 -559 2000 -497 0zm3847 0l-835 -2600 490 0 441 1501 157 558c6,-27 54,-206 143,-536l437 -1523 481 0 416 1510 136 495 159 -502 478 -1503 455 0 -867 2600 -485 0 -439 -1555 -111 -445 -559 2000 -497 0zm3848 0l-836 -2600 490 0 442 1501 156 558c6,-27 54,-206 143,-536l438 -1523 480 0 416 1510 136 495 159 -502 478 -1503 455 0 -867 2600 -485 0 -438 -1555 -112 -445 -559 2000 -496 0zm3189 0l0 -501 533 0 0 501 -533 0zm1336 0l0 -3587 469 0 0 3587 -469 0zm1195 997l0 -3597 426 0 0 342c100,-132 214,-231 341,-297 126,-66 279,-100 460,-100 236,0 444,57 624,171 180,114 316,275 408,482 92,208 138,435 138,683 0,265 -51,504 -152,717 -101,212 -248,374 -442,488 -193,113 -396,170 -609,170 -156,0 -297,-31 -420,-93 -124,-62 -226,-140 -306,-234l0 1268 -468 0zm426 -2281c0,333 72,580 215,739 144,160 318,240 522,240 208,0 385,-83 533,-248 148,-165 221,-421 221,-767 0,-331 -71,-578 -216,-743 -145,-164 -317,-246 -518,-246 -199,0 -375,88 -527,262 -154,175 -230,429 -230,763zm2350 207l0 -441 1449 0 0 441 -1449 0zm3767 126l458 60c-51,296 -179,527 -386,695 -207,168 -461,252 -762,252 -378,0 -681,-117 -910,-349 -230,-232 -345,-564 -345,-997 0,-280 50,-525 148,-735 99,-210 249,-368 451,-472 202,-105 421,-158 659,-158 299,0 545,71 735,214 191,143 314,346 367,608l-453 65c-43,-175 -120,-306 -231,-394 -110,-88 -243,-132 -399,-132 -236,0 -428,79 -576,238 -148,159 -221,410 -221,754 0,349 71,602 213,760 143,158 328,237 556,237 185,0 339,-53 461,-159 124,-105 202,-268 235,-487zm852 951l0 -2600 421 0 0 399c107,-185 207,-307 298,-365 92,-60 192,-89 301,-89 158,0 319,47 482,140l-167 406c-113,-60 -227,-90 -341,-90 -102,0 -193,29 -274,87 -81,58 -138,138 -173,240 -52,157 -78,328 -78,514l0 1358 -469 0zm1779 0l0 -2600 421 0 0 368c86,-127 202,-230 346,-307 143,-77 307,-116 491,-116 204,0 372,40 502,120 131,80 223,191 276,334 220,-303 506,-454 857,-454 275,0 488,71 635,214 148,143 223,362 223,659l0 1782 -469 0 0 -1636c0,-175 -16,-302 -46,-380 -30,-78 -85,-139 -166,-187 -80,-48 -174,-71 -282,-71 -195,0 -357,61 -485,182 -129,122 -193,316 -193,584l0 1508 -469 0 0 -1687c0,-195 -38,-342 -114,-440 -77,-98 -202,-147 -375,-147 -131,0 -253,33 -365,98 -112,65 -193,160 -243,286 -50,125 -75,306 -75,543l0 1347 -469 0zm4571 0l0 -501 533 0 0 501 -533 0zm1779 0l-437 0 0 -3587 469 0 0 1280c198,-232 450,-348 757,-348 170,0 331,32 483,96 152,65 276,156 375,272 97,116 175,257 230,421 56,164 83,340 83,527 0,444 -117,788 -350,1031 -235,242 -515,364 -843,364 -326,0 -582,-128 -767,-383l0 327zm-6 -1319c0,311 46,535 135,674 148,226 347,340 598,340 205,0 382,-84 530,-251 149,-167 224,-415 224,-746 0,-339 -71,-589 -214,-750 -143,-161 -316,-242 -519,-242 -205,0 -382,83 -530,250 -149,167 -224,409 -224,725zm2537 -1767l0 -501 469 0 0 501 -469 0zm0 3086l0 -2600 469 0 0 2600 -469 0zm936 0l0 -359 1751 -1900c-199,10 -374,15 -525,15l-1120 0 0 -356 2254 0 0 290 -1499 1648 -287 307c211,-17 408,-25 592,-25l1279 0 0 380 -2445 0z"/>
   <g>
    <path class="fil3" d="M43600 26581l-615 0c-2054,0 -3784,1462 -4200,3397 -63,290 -96,591 -96,900l0 6468c0,309 33,610 96,900 416,1935 2146,3397 4200,3397 3739,0 7478,0 11217,0 2363,0 4296,-1934 4296,-4297l0 -1536 -4911 0 0 554c0,1035 -847,1882 -1883,1882l-6221 0c-1036,0 -1883,-847 -1883,-1882 0,-1398 0,-3106 0,-4504 0,-1035 847,-1882 1883,-1882l6221 0c1036,0 1883,847 1883,1882l0 554 4911 0 0 -1536c0,-2363 -1933,-4297 -4296,-4297 -3534,0 -7068,0 -10602,0z"/>
    <path class="fil0" d="M41349 43451l60899 0c1463,0 2660,1198 2660,2661l0 0c0,1463 -1197,2660 -2660,2660l-60899 0c-1463,0 -2660,-1197 -2660,-2660l0 0c0,-1463 1197,-2661 2660,-2661z"/>
   </g>
   <path class="fil4" d="M41704 47512l0 -2472 505 0 0 2051 1250 0 0 421 -1755 0zm7778 0l-544 0 -215 -568 -1000 0 -207 568 -534 0 968 -2493 533 0 999 2493zm-923 -989l-346 -923 -337 923 683 0zm4610 989l0 -2493 489 0 1026 1671 0 -1671 467 0 0 2493 -505 0 -1010 -1639 0 1639 -467 0zm5934 -2493l918 0c207,0 365,15 474,47 145,43 271,120 375,230 104,110 183,244 238,404 54,159 81,356 81,589 0,206 -26,382 -77,531 -62,181 -151,328 -266,440 -87,85 -205,151 -353,199 -111,35 -259,53 -445,53l-945 0 0 -2493zm505 421l0 1651 374 0c140,0 241,-9 303,-24 82,-21 149,-55 203,-104 54,-49 97,-129 131,-240 34,-112 51,-264 51,-457 0,-193 -17,-340 -51,-444 -34,-103 -81,-183 -142,-241 -61,-57 -138,-97 -232,-117 -70,-16 -208,-24 -412,-24l-225 0zm5411 2072l0 -2493 505 0 0 2493 -505 0zm4404 0l0 -2493 489 0 1026 1671 0 -1671 467 0 0 2493 -505 0 -1010 -1639 0 1639 -467 0zm7094 -916l0 -421 1083 0 0 994c-105,103 -258,193 -458,271 -200,78 -403,117 -608,117 -261,0 -487,-54 -681,-164 -194,-110 -339,-267 -437,-471 -97,-203 -146,-426 -146,-665 0,-260 55,-491 163,-694 109,-202 268,-357 478,-465 160,-83 358,-125 596,-125 310,0 552,65 726,195 173,131 285,310 335,540l-501 94c-35,-122 -101,-219 -198,-291 -96,-70 -217,-106 -362,-106 -220,0 -394,70 -524,210 -129,140 -194,347 -194,621 0,297 65,519 197,667 131,148 303,222 516,222 105,0 211,-21 316,-62 107,-41 197,-91 273,-151l0 -316 -574 0zm5935 916l0 -2493 807 0c306,0 505,12 598,37 143,38 262,119 359,244 96,126 144,287 144,486 0,153 -28,281 -83,386 -56,104 -126,186 -211,246 -85,59 -172,99 -261,118 -120,24 -293,36 -521,36l-327 0 0 940 -505 0zm505 -2072l0 710 274 0c198,0 330,-13 397,-39 67,-26 119,-67 156,-123 38,-56 57,-120 57,-195 0,-91 -26,-165 -79,-225 -54,-59 -120,-96 -202,-111 -60,-11 -180,-17 -361,-17l-242 0zm7224 2072l-544 0 -215 -568 -1000 0 -207 568 -534 0 968 -2493 533 0 999 2493zm-923 -989l-346 -923 -337 923 683 0zm5771 73l0 -421 1082 0 0 994c-105,103 -257,193 -457,271 -200,78 -403,117 -608,117 -261,0 -488,-54 -681,-164 -194,-110 -339,-267 -437,-471 -97,-203 -146,-426 -146,-665 0,-260 55,-491 163,-694 109,-202 268,-357 478,-465 160,-83 358,-125 596,-125 310,0 552,65 726,195 173,131 285,310 335,540l-501 94c-35,-122 -101,-219 -198,-291 -97,-70 -217,-106 -362,-106 -220,0 -394,70 -524,210 -129,140 -194,347 -194,621 0,297 65,519 197,667 131,148 303,222 516,222 105,0 211,-21 316,-62 107,-41 197,-91 273,-151l0 -316 -574 0zm4968 916l0 -2493 1845 0 0 421 -1341 0 0 554 1247 0 0 421 -1247 0 0 676 1390 0 0 421 -1894 0z"/>
  </g>
 </g>
</svg>
