<svg xmlns="http://www.w3.org/2000/svg" width="396.801" height="284.799" viewBox="0 0 104987 75353" shape-rendering="geometricPrecision" text-rendering="geometricPrecision" image-rendering="optimizeQuality" fill-rule="evenodd" clip-rule="evenodd"><defs><style>.fil3{fill:#000}.fil0{fill:#fe0}.fil4{fill:#000;fill-rule:nonzero}</style></defs><g id="Слой_x0020_1"><g id="_2832063274896"><path class="fil0" d="M12415 26322c-303 1425-494 2887-664 4356 1208-3960 2456-7402 3907-8264 1611-959 2812 1152 3655 3919 1514 4968 1881 10106 1512 15222-164 2277-1101 12205-4536 11582-1618-294-2956-3822-4210-8298 69 2363 322 4463 779 6271 465 1841 2151 6272 4538 6139 5155-285 6216-16021 6142-19859-65-3410-1490-19180-6098-19289-2626-62-4571 6077-5025 8221z"/><path d="M25070 27618c-834 252-1671 551-2494 866l54 311c3337-641 6181-953 7429-221 1615 949 346 3020-1672 5093-3622 3721-7946 6521-12605 8665-2074 954-11224 4921-12334 1611-523-1559 1923-4432 5239-7690-2037 1200-3755 2434-5118 3706-1388 1296-4458 4909-3190 6937 2736 4378 17033-2281 20359-4196 2956-1701 16085-10555 13958-14644-1212-2331-7528-1074-9626-438z" fill="#ff0483"/><path d="M9936 27618c734 222 1393 451 2118 723-12 19-31 312-55 382-3186-595-5847-856-7051-149-1616 950-347 3020 1671 5093 3622 3722 7946 6521 12606 8665 2074 954 11223 4921 12333 1611 441-1313-1225-3559-3743-6182l406-315c1224 821 2301 1660 3216 2513 1389 1295 4458 4909 3190 6937-2736 4378-17033-2281-20359-4196C11312 40999-1816 32145 311 28056c1211-2331 7527-1073 9625-438zm2509 872c556 212 1074 421 1627 647-588-123-1161-240-1725-348l98-299z" fill="#6a91cc"/><path class="fil3" d="M60299 26581v15062h4911v-4421h8513v4421h4709c131-387 202-800 202-1230v-1148c0-1921-1427-3524-3274-3802-181-28-365-42-553-43 188-1 372-15 553-43 1847-278 3274-1881 3274-3803v-1147c0-2115-1730-3846-3845-3846H60299zm4911 7244v-3847h6589c1059 0 1924 865 1924 1924 0 1058-865 1923-1924 1923h-6589zm27789 2869l-496-1101-1625-3603-525-1165-1914-4244h-7349v15062h4911V30825l4877 10818h4242l4877-10818v10818h4911V26581h-7350l-1913 4244-525 1165-1625 3603z"/><path class="fil4" d="M70056 54981l-835-2600h490l441 1501 156 558c7-27 55-206 143-536l438-1523h480l417 1510 136 495 159-502 477-1503h456l-868 2600h-484l-439-1555-111-445-559 2000h-497zm3847 0l-835-2600h490l441 1501 157 558c6-27 54-206 143-536l437-1523h481l416 1510 136 495 159-502 478-1503h455l-867 2600h-485l-439-1555-111-445-559 2000h-497zm3848 0l-836-2600h490l442 1501 156 558c6-27 54-206 143-536l438-1523h480l416 1510 136 495 159-502 478-1503h455l-867 2600h-485l-438-1555-112-445-559 2000h-496zm3189 0v-501h533v501h-533zm1336 0v-3587h469v3587h-469zm1195 997v-3597h426v342c100-132 214-231 341-297 126-66 279-100 460-100 236 0 444 57 624 171s316 275 408 482c92 208 138 435 138 683 0 265-51 504-152 717-101 212-248 374-442 488-193 113-396 170-609 170-156 0-297-31-420-93-124-62-226-140-306-234v1268h-468zm426-2281c0 333 72 580 215 739 144 160 318 240 522 240 208 0 385-83 533-248s221-421 221-767c0-331-71-578-216-743-145-164-317-246-518-246-199 0-375 88-527 262-154 175-230 429-230 763zm2350 207v-441h1449v441h-1449zm3767 126l458 60c-51 296-179 527-386 695s-461 252-762 252c-378 0-681-117-910-349-230-232-345-564-345-997 0-280 50-525 148-735 99-210 249-368 451-472 202-105 421-158 659-158 299 0 545 71 735 214 191 143 314 346 367 608l-453 65c-43-175-120-306-231-394-110-88-243-132-399-132-236 0-428 79-576 238s-221 410-221 754c0 349 71 602 213 760 143 158 328 237 556 237 185 0 339-53 461-159 124-105 202-268 235-487zm852 951v-2600h421v399c107-185 207-307 298-365 92-60 192-89 301-89 158 0 319 47 482 140l-167 406c-113-60-227-90-341-90-102 0-193 29-274 87s-138 138-173 240c-52 157-78 328-78 514v1358h-469zm1779 0v-2600h421v368c86-127 202-230 346-307 143-77 307-116 491-116 204 0 372 40 502 120 131 80 223 191 276 334 220-303 506-454 857-454 275 0 488 71 635 214 148 143 223 362 223 659v1782h-469v-1636c0-175-16-302-46-380s-85-139-166-187c-80-48-174-71-282-71-195 0-357 61-485 182-129 122-193 316-193 584v1508h-469v-1687c0-195-38-342-114-440-77-98-202-147-375-147-131 0-253 33-365 98s-193 160-243 286c-50 125-75 306-75 543v1347h-469zm4571 0v-501h533v501h-533zm1779 0h-437v-3587h469v1280c198-232 450-348 757-348 170 0 331 32 483 96 152 65 276 156 375 272 97 116 175 257 230 421 56 164 83 340 83 527 0 444-117 788-350 1031-235 242-515 364-843 364-326 0-582-128-767-383v327zm-6-1319c0 311 46 535 135 674 148 226 347 340 598 340 205 0 382-84 530-251 149-167 224-415 224-746 0-339-71-589-214-750s-316-242-519-242c-205 0-382 83-530 250-149 167-224 409-224 725zm2537-1767v-501h469v501h-469zm0 3086v-2600h469v2600h-469zm936 0v-359l1751-1900c-199 10-374 15-525 15h-1120v-356h2254v290l-1499 1648-287 307c211-17 408-25 592-25h1279v380h-2445z"/><path class="fil3" d="M43600 26581h-615c-2054 0-3784 1462-4200 3397-63 290-96 591-96 900v6468c0 309 33 610 96 900 416 1935 2146 3397 4200 3397h11217c2363 0 4296-1934 4296-4297v-1536h-4911v554c0 1035-847 1882-1883 1882h-6221c-1036 0-1883-847-1883-1882v-4504c0-1035 847-1882 1883-1882h6221c1036 0 1883 847 1883 1882v554h4911v-1536c0-2363-1933-4297-4296-4297H43600z"/><path class="fil0" d="M41349 43451h60899c1463 0 2660 1198 2660 2661s-1197 2660-2660 2660H41349c-1463 0-2660-1197-2660-2660s1197-2661 2660-2661z"/><path class="fil4" d="M41704 47512v-2472h505v2051h1250v421h-1755zm7778 0h-544l-215-568h-1000l-207 568h-534l968-2493h533l999 2493zm-923-989l-346-923-337 923h683zm4610 989v-2493h489l1026 1671v-1671h467v2493h-505l-1010-1639v1639h-467zm5934-2493h918c207 0 365 15 474 47 145 43 271 120 375 230s183 244 238 404c54 159 81 356 81 589 0 206-26 382-77 531-62 181-151 328-266 440-87 85-205 151-353 199-111 35-259 53-445 53h-945v-2493zm505 421v1651h374c140 0 241-9 303-24 82-21 149-55 203-104s97-129 131-240c34-112 51-264 51-457s-17-340-51-444c-34-103-81-183-142-241-61-57-138-97-232-117-70-16-208-24-412-24h-225zm5411 2072v-2493h505v2493h-505zm4404 0v-2493h489l1026 1671v-1671h467v2493h-505l-1010-1639v1639h-467zm7094-916v-421h1083v994c-105 103-258 193-458 271s-403 117-608 117c-261 0-487-54-681-164s-339-267-437-471c-97-203-146-426-146-665 0-260 55-491 163-694 109-202 268-357 478-465 160-83 358-125 596-125 310 0 552 65 726 195 173 131 285 310 335 540l-501 94c-35-122-101-219-198-291-96-70-217-106-362-106-220 0-394 70-524 210-129 140-194 347-194 621 0 297 65 519 197 667 131 148 303 222 516 222 105 0 211-21 316-62 107-41 197-91 273-151v-316h-574zm5935 916v-2493h807c306 0 505 12 598 37 143 38 262 119 359 244 96 126 144 287 144 486 0 153-28 281-83 386-56 104-126 186-211 246-85 59-172 99-261 118-120 24-293 36-521 36h-327v940h-505zm505-2072v710h274c198 0 330-13 397-39s119-67 156-123c38-56 57-120 57-195 0-91-26-165-79-225-54-59-120-96-202-111-60-11-180-17-361-17h-242zm7224 2072h-544l-215-568h-1000l-207 568h-534l968-2493h533l999 2493zm-923-989l-346-923-337 923h683zm5771 73v-421h1082v994c-105 103-257 193-457 271s-403 117-608 117c-261 0-488-54-681-164-194-110-339-267-437-471-97-203-146-426-146-665 0-260 55-491 163-694 109-202 268-357 478-465 160-83 358-125 596-125 310 0 552 65 726 195 173 131 285 310 335 540l-501 94c-35-122-101-219-198-291-97-70-217-106-362-106-220 0-394 70-524 210-129 140-194 347-194 621 0 297 65 519 197 667 131 148 303 222 516 222 105 0 211-21 316-62 107-41 197-91 273-151v-316h-574zm4968 916v-2493h1845v421h-1341v554h1247v421h-1247v676h1390v421h-1894z"/></g></g></svg>