<svg width="150" height="42" fill="none" xmlns="http://www.w3.org/2000/svg"><path fill-rule="evenodd" clip-rule="evenodd" d="M58.82 25.473c1.118-1.118 1.656-2.461 1.656-4.028 0-1.567-.538-2.91-1.656-3.983-1.12-1.12-2.462-1.656-4.074-1.656-1.654 0-3.042.537-4.205 1.656-1.119 1.074-1.702 2.416-1.702 3.983 0 1.567.583 2.91 1.702 4.028 1.163 1.075 2.55 1.611 4.205 1.611 1.612 0 2.955-.536 4.074-1.61zM42.573 41.361V10.167h6.669v2.954c.67-1.97 3.311-3.356 6.713-3.356 3.178 0 5.863 1.118 7.967 3.4 2.148 2.238 3.222 5.013 3.222 8.28 0 3.268-1.074 6.042-3.222 8.325-2.104 2.237-4.789 3.356-7.967 3.356-3.402 0-6.042-1.386-6.713-3.356v11.59h-6.669zm28.017-8.637V10.166h6.668v3.09c1.03-2.284 3.446-3.582 6.534-3.582.448 0 1.03.045 1.746.135v6.265a11.484 11.484 0 00-2.238-.223c-3.804 0-6.042 2.148-6.042 5.862v11.01H70.59zm24.57-7.072c1.118 1.119 2.506 1.7 4.162 1.7 1.656 0 3.043-.581 4.162-1.7 1.119-1.163 1.702-2.55 1.702-4.207 0-1.656-.583-3.043-1.702-4.162-1.119-1.164-2.506-1.745-4.162-1.745-1.656 0-3.044.58-4.163 1.745-1.118 1.119-1.7 2.506-1.7 4.162 0 1.656.582 3.088 1.7 4.207zm13.024-12.666c2.461 2.282 3.669 5.103 3.669 8.46 0 3.356-1.208 6.175-3.669 8.502-2.463 2.284-5.416 3.447-8.862 3.447-3.49 0-6.444-1.163-8.907-3.447-2.416-2.327-3.625-5.146-3.625-8.503 0-3.356 1.21-6.177 3.625-8.46 2.463-2.326 5.416-3.49 8.907-3.49 3.446 0 6.399 1.164 8.862 3.49m7.159 19.739V10.166h6.669v2.82c.85-1.968 3.132-3.312 5.863-3.312 3.043 0 5.101 1.208 6.131 3.582 1.254-2.374 3.759-3.582 7.519-3.582 5.148 0 8.012 3.491 8.012 9.354v13.696h-6.669v-12.89c0-2.64-1.208-4.252-3.356-4.252-2.193 0-3.76 1.836-3.76 4.476v12.666h-6.669v-12.89c0-2.64-1.208-4.252-3.356-4.252-2.149 0-3.715 1.836-3.715 4.476v12.666h-6.669z" fill="#fff"/><path fill-rule="evenodd" clip-rule="evenodd" d="M0 33.05h33.05V0H0v33.05zm7.574-7.575h17.901V7.574H7.574v17.901z" fill="url(#paint0_linear_46_562)"/><defs><linearGradient id="paint0_linear_46_562" x1="0" y1="0" x2="33.049" y2="33.049" gradientUnits="userSpaceOnUse"><stop stop-color="#4854A2"/><stop offset="1" stop-color="#772088"/></linearGradient></defs></svg>