<?xml version="1.0" encoding="utf-8"?>
<!-- Generator: Adobe Illustrator 22.0.1, SVG Export Plug-In . SVG Version: 6.00 Build 0)  -->
<svg version="1.1" id="Слой_1" xmlns="http://www.w3.org/2000/svg" xmlns:xlink="http://www.w3.org/1999/xlink" x="0px" y="0px"
	 viewBox="0 0 220 127.017" style="enable-background:new 0 0 220 127.017;" xml:space="preserve">
<path style="fill:#FFFFFF;" d="M211.687,109.459l-98.487,17.28c-2.117,0.371-4.283,0.371-6.4,0l-98.487-17.28
	C3.506,108.615,0,104.44,0,99.56V0h220v99.56C220,104.44,216.494,108.615,211.687,109.459z"/>
<linearGradient id="SVGID_1_" gradientUnits="userSpaceOnUse" x1="6.5" y1="60.7586" x2="213.5" y2="60.7586">
	<stop  offset="1.892211e-08" style="stop-color:#F5F8FB"/>
	<stop  offset="1" style="stop-color:#E9EEF7"/>
</linearGradient>
<path style="fill:none;stroke:url(#SVGID_1_);stroke-miterlimit:10;" d="M213,1v91.56c0,4.88-3.283,9.055-7.784,9.899l-92.219,17.28
	c-1.982,0.371-4.01,0.371-5.993,0l-92.219-17.28C10.283,101.615,7,97.44,7,92.56V1"/>
<g id="Слой_2">
	<g>
		
			<linearGradient id="SVGID_2_" gradientUnits="userSpaceOnUse" x1="-527.175" y1="744.7679" x2="-526.9047" y2="744.7679" gradientTransform="matrix(0 68.0857 562.9786 0 -419232.7188 35938.9727)">
			<stop  offset="0" style="stop-color:#323232"/>
			<stop  offset="1" style="stop-color:#000000"/>
		</linearGradient>
		<polygon style="fill:url(#SVGID_2_);" points="53.978,64.101 53.978,48.808 46.958,48.808 46.958,46.109 64.418,46.109 
			64.418,48.808 57.373,48.808 57.373,64.101 		"/>
	</g>
	<g>
		
			<linearGradient id="SVGID_3_" gradientUnits="userSpaceOnUse" x1="-527.175" y1="744.8004" x2="-526.9047" y2="744.8004" gradientTransform="matrix(0 68.0857 562.9786 0 -419232.7188 35938.9727)">
			<stop  offset="0" style="stop-color:#323232"/>
			<stop  offset="1" style="stop-color:#000000"/>
		</linearGradient>
		<path style="fill:url(#SVGID_3_);" d="M65.704,49.167c0-0.565,0.103-1.182,0.103-1.182c0.103-0.617,0.643-1.157,0.643-1.157
			c0.489-0.463,1.054-0.591,1.054-0.591c0.566-0.129,1.106-0.129,1.106-0.129h8.537c0.463,0,0.977,0.026,0.977,0.026
			c0.514,0.026,1.029,0.206,1.029,0.206c0.514,0.18,0.977,0.488,0.977,0.488c0.463,0.308,0.874,0.925,0.874,0.925
			c0.643,0.925,0.771,1.953,0.771,1.953c0.129,1.028,0.129,2.005,0.129,2.005c0,0.977-0.103,2.005-0.103,2.005
			c-0.103,1.028-0.669,2.056-0.669,2.056c-0.18,0.334-0.437,0.643-0.437,0.643c-0.257,0.308-0.643,0.591-0.643,0.591
			c-0.386,0.283-0.977,0.437-0.977,0.437c-0.591,0.154-1.337,0.18-1.337,0.18h-2.314v0.129l6.84,6.349h-4.269l-5.914-5.835
			c-0.283-0.283-0.566-0.694-0.566-0.694c-0.283-0.411-0.283-0.823-0.283-0.823v-0.411c0-0.54,0.386-0.874,0.386-0.874
			c0.386-0.334,1.131-0.36,1.131-0.36h3.394c0.437,0,0.951-0.129,0.951-0.129c0.514-0.129,0.9-0.668,0.9-0.668
			c0.129-0.206,0.206-0.54,0.206-0.54c0.077-0.334,0.129-0.668,0.129-0.668c0.051-0.334,0.051-0.694,0.051-0.694
			c0-0.36,0.026-0.565,0.026-0.565c0-1.08-0.18-1.645-0.18-1.645c-0.18-0.565-0.463-0.848-0.463-0.848
			c-0.411-0.411-0.951-0.463-0.951-0.463c-0.54-0.051-0.951-0.077-0.951-0.077h-5.503c-0.283,0-0.489,0.026-0.489,0.026
			c-0.206,0.026-0.411,0.257-0.411,0.257c-0.283,0.231-0.309,0.463-0.309,0.463c-0.026,0.231-0.051,0.54-0.051,0.54v14.009h-3.394
			V49.167z"/>
	</g>
	<g>
		
			<linearGradient id="SVGID_4_" gradientUnits="userSpaceOnUse" x1="-527.175" y1="744.832" x2="-526.9047" y2="744.832" gradientTransform="matrix(0 68.0857 562.9786 0 -419232.7188 35938.9727)">
			<stop  offset="0" style="stop-color:#323232"/>
			<stop  offset="1" style="stop-color:#000000"/>
		</linearGradient>
		<path style="fill:url(#SVGID_4_);" d="M87.304,64.101c-0.591,0-1.106-0.051-1.106-0.051c-0.514-0.051-0.951-0.514-0.951-0.514
			c-0.463-0.437-0.566-1.002-0.566-1.002c-0.103-0.565-0.103-1.105-0.103-1.105V48.679c0-0.54,0.154-1.028,0.154-1.028
			c0.154-0.488,0.463-0.848,0.463-0.848c0.437-0.488,1.029-0.591,1.029-0.591c0.591-0.103,1.131-0.103,1.131-0.103h11.546v2.699
			h-9.72c-0.231,0-0.463,0.026-0.463,0.026c-0.231,0.026-0.463,0.231-0.463,0.231c-0.206,0.206-0.231,0.437-0.231,0.437
			c-0.026,0.231-0.051,0.437-0.051,0.437v3.624h10.671v2.699H87.973v4.215c0,0.488,0.257,0.694,0.257,0.694
			c0.154,0.154,0.437,0.18,0.437,0.18c0.283,0.026,0.72,0.051,0.72,0.051h9.617v2.699H87.304z"/>
	</g>
	<g>
		
			<linearGradient id="SVGID_5_" gradientUnits="userSpaceOnUse" x1="-527.175" y1="744.8643" x2="-526.9047" y2="744.8643" gradientTransform="matrix(0 68.0857 562.9786 0 -419232.7188 35938.9727)">
			<stop  offset="0" style="stop-color:#323232"/>
			<stop  offset="1" style="stop-color:#000000"/>
		</linearGradient>
		<path style="fill:url(#SVGID_5_);" d="M118.547,61.762c0,1.362-0.771,1.954-0.771,1.954c-0.771,0.591-1.903,0.591-1.903,0.591
			c-0.823,0-1.569-0.283-1.569-0.283c-0.746-0.283-1.337-1.234-1.337-1.234l-7.586-11.978c-0.206-0.283-0.283-0.36-0.283-0.36
			c-0.077-0.077-0.129-0.077-0.129-0.077c-0.103,0-0.231,0.103-0.231,0.103c-0.129,0.103-0.129,0.411-0.129,0.411v13.212h-3.291
			V48.345c0-1.157,0.72-1.799,0.72-1.799c0.72-0.643,2.031-0.643,2.031-0.643c1.209,0,1.851,0.411,1.851,0.411
			c0.643,0.411,1.003,1.002,1.003,1.002l7.637,12.055c0.103,0.129,0.154,0.283,0.154,0.283c0.051,0.154,0.257,0.154,0.257,0.154
			c0.206,0,0.231-0.154,0.231-0.154c0.026-0.154,0.051-0.283,0.051-0.283V46.109h3.291V61.762z"/>
	</g>
	<g>
		
			<linearGradient id="SVGID_6_" gradientUnits="userSpaceOnUse" x1="-527.175" y1="744.8998" x2="-526.9047" y2="744.8998" gradientTransform="matrix(0 68.0857 562.9786 0 -419232.7188 35938.9727)">
			<stop  offset="0" style="stop-color:#323232"/>
			<stop  offset="1" style="stop-color:#000000"/>
		</linearGradient>
		<path style="fill:url(#SVGID_6_);" d="M125.027,60.169c0,0.283,0,0.514,0,0.514c0,0.231,0.231,0.463,0.231,0.463
			c0.18,0.206,0.411,0.231,0.411,0.231c0.231,0.026,0.463,0.026,0.463,0.026h3.909c1.414,0,2.34-0.36,2.34-0.36
			c0.926-0.36,1.543-1.311,1.543-1.311c0.334-0.514,0.617-1.645,0.617-1.645c0.283-1.131,0.283-3.444,0.283-3.444
			c0-0.565-0.026-1.182-0.026-1.182c-0.026-0.617-0.18-1.208-0.18-1.208c-0.154-0.591-0.386-1.131-0.386-1.131
			c-0.231-0.54-0.669-1.002-0.669-1.002c-0.386-0.411-0.849-0.668-0.849-0.668c-0.463-0.257-1.003-0.386-1.003-0.386
			c-0.54-0.129-1.029-0.206-1.029-0.206c-0.489-0.077-0.977-0.051-0.977-0.051h-3.523c-0.154,0-0.386,0.026-0.386,0.026
			c-0.231,0.026-0.411,0.154-0.411,0.154c-0.154,0.129-0.257,0.36-0.257,0.36c-0.103,0.231-0.103,0.54-0.103,0.54V60.169z
			 M124.384,64.101c-1.003,0-1.44-0.206-1.44-0.206c-0.437-0.206-0.566-0.283-0.566-0.283c-0.257-0.206-0.489-0.617-0.489-0.617
			c-0.231-0.411-0.257-1.182-0.257-1.182V48.988c0-0.514,0.077-1.054,0.077-1.054c0.077-0.54,0.54-1.054,0.54-1.054
			c0.206-0.206,0.643-0.488,0.643-0.488c0.437-0.283,1.286-0.283,1.286-0.283h7.046c1.877,0,3.163,0.617,3.163,0.617
			c1.286,0.617,2.109,1.517,2.109,1.517c0.643,0.72,1.003,1.542,1.003,1.542c0.36,0.823,0.566,1.696,0.566,1.696
			c0.206,0.874,0.206,1.748,0.206,1.748c0,0.874,0.051,1.671,0.051,1.671c0,0.745-0.026,1.645-0.026,1.645
			c-0.026,0.9-0.206,1.851-0.206,1.851c-0.18,0.951-0.489,1.851-0.489,1.851c-0.309,0.9-0.874,1.645-0.874,1.645
			c-0.283,0.36-0.694,0.745-0.694,0.745c-0.411,0.386-1.029,0.72-1.029,0.72c-0.617,0.334-1.44,0.54-1.44,0.54
			c-0.823,0.206-1.877,0.206-1.877,0.206H124.384z"/>
	</g>
	<g>
		
			<linearGradient id="SVGID_7_" gradientUnits="userSpaceOnUse" x1="-527.175" y1="744.9318" x2="-526.9047" y2="744.9318" gradientTransform="matrix(0 68.0857 562.9786 0 -419232.7188 35938.9727)">
			<stop  offset="0" style="stop-color:#323232"/>
			<stop  offset="1" style="stop-color:#000000"/>
		</linearGradient>
		<path style="fill:url(#SVGID_7_);" d="M147.938,64.101c-0.643,0-1.389-0.051-1.389-0.051c-0.746-0.051-1.491-0.283-1.491-0.283
			c-0.746-0.231-1.491-0.643-1.491-0.643c-0.746-0.411-1.363-1.131-1.363-1.131c-0.643-0.72-1.003-1.568-1.003-1.568
			c-0.36-0.848-0.54-1.722-0.54-1.722c-0.18-0.874-0.231-1.722-0.231-1.722c-0.051-0.848-0.051-1.619-0.051-1.619
			c0-0.951,0.051-1.902,0.051-1.902c0.051-0.951,0.257-1.876,0.257-1.876c0.206-0.925,0.514-1.722,0.514-1.722
			c0.309-0.797,0.926-1.491,0.926-1.491c0.669-0.797,1.491-1.234,1.491-1.234c0.823-0.437,1.646-0.694,1.646-0.694
			c0.823-0.257,1.543-0.283,1.543-0.283c0.72-0.026,1.209-0.051,1.209-0.051h7.226v2.699h-5.631c-0.746,0-1.44,0.026-1.44,0.026
			c-0.694,0.026-1.286,0.231-1.286,0.231c-0.591,0.206-1.106,0.514-1.106,0.514c-0.514,0.308-0.9,0.9-0.9,0.9
			c-0.411,0.591-0.694,1.696-0.694,1.696c-0.283,1.105-0.309,3.136-0.309,3.136c0,1.002,0.077,1.722,0.077,1.722
			c0.077,0.72,0.206,1.26,0.206,1.26c0.129,0.54,0.283,0.848,0.283,0.848c0.154,0.308,0.283,0.54,0.283,0.54
			c0.694,1.054,1.903,1.388,1.903,1.388c1.209,0.334,2.803,0.334,2.803,0.334h6.094v2.699H147.938z"/>
	</g>
	<g>
		
			<linearGradient id="SVGID_8_" gradientUnits="userSpaceOnUse" x1="-527.175" y1="744.9641" x2="-526.9047" y2="744.9641" gradientTransform="matrix(0 68.0857 562.9786 0 -419232.7188 35938.9727)">
			<stop  offset="0" style="stop-color:#323232"/>
			<stop  offset="1" style="stop-color:#000000"/>
		</linearGradient>
		<path style="fill:url(#SVGID_8_);" d="M157.838,49.167c0-0.565,0.103-1.182,0.103-1.182c0.103-0.617,0.643-1.157,0.643-1.157
			c0.489-0.463,1.054-0.591,1.054-0.591c0.566-0.129,1.106-0.129,1.106-0.129h8.537c0.463,0,0.977,0.026,0.977,0.026
			c0.514,0.026,1.029,0.206,1.029,0.206c0.514,0.18,0.977,0.488,0.977,0.488c0.463,0.308,0.874,0.925,0.874,0.925
			c0.643,0.925,0.771,1.953,0.771,1.953c0.129,1.028,0.129,2.005,0.129,2.005c0,0.977-0.103,2.005-0.103,2.005
			c-0.103,1.028-0.669,2.056-0.669,2.056c-0.18,0.334-0.437,0.643-0.437,0.643c-0.257,0.308-0.643,0.591-0.643,0.591
			c-0.386,0.283-0.977,0.437-0.977,0.437c-0.591,0.154-1.337,0.18-1.337,0.18h-2.314v0.129l6.84,6.349h-4.269l-5.914-5.835
			c-0.283-0.283-0.566-0.694-0.566-0.694c-0.283-0.411-0.283-0.823-0.283-0.823v-0.411c0-0.54,0.386-0.874,0.386-0.874
			c0.386-0.334,1.131-0.36,1.131-0.36h3.394c0.437,0,0.951-0.129,0.951-0.129c0.514-0.129,0.9-0.668,0.9-0.668
			c0.129-0.206,0.206-0.54,0.206-0.54c0.077-0.334,0.129-0.668,0.129-0.668c0.051-0.334,0.051-0.694,0.051-0.694
			c0-0.36,0.026-0.565,0.026-0.565c0-1.08-0.18-1.645-0.18-1.645c-0.18-0.565-0.463-0.848-0.463-0.848
			c-0.411-0.411-0.951-0.463-0.951-0.463c-0.54-0.051-0.951-0.077-0.951-0.077h-5.503c-0.283,0-0.489,0.026-0.489,0.026
			c-0.206,0.026-0.411,0.257-0.411,0.257c-0.283,0.231-0.309,0.463-0.309,0.463c-0.026,0.231-0.051,0.54-0.051,0.54v14.009h-3.394
			V49.167z"/>
	</g>
	<g>
		
			<linearGradient id="SVGID_9_" gradientUnits="userSpaceOnUse" x1="-527.175" y1="745.0028" x2="-526.9047" y2="745.0028" gradientTransform="matrix(0 68.0857 562.9786 0 -419232.7188 35938.9727)">
			<stop  offset="0" style="stop-color:#323232"/>
			<stop  offset="1" style="stop-color:#000000"/>
		</linearGradient>
		<path style="fill:url(#SVGID_9_);" d="M190.496,62.148c-0.206,0.514-0.386,0.9-0.386,0.9c-0.18,0.386-0.489,0.694-0.489,0.694
			c-0.309,0.308-0.694,0.411-0.694,0.411c-0.386,0.103-1.003,0.154-1.003,0.154c-0.643,0-1.054-0.18-1.054-0.18
			c-0.411-0.18-0.72-0.463-0.72-0.463c-0.309-0.283-0.463-0.694-0.463-0.694c-0.154-0.411-0.334-0.823-0.334-0.823l-4.603-12.004
			c-0.051-0.154-0.18-0.36-0.18-0.36c-0.129-0.206-0.257-0.231-0.257-0.231c-0.206,0-0.231,0.231-0.231,0.231
			c-0.026,0.231-0.051,0.308-0.051,0.308l0.077,14.009h-3.394V48.268c0-0.874,0.386-1.337,0.386-1.337
			c0.386-0.463,0.874-0.72,0.874-0.72c0.489-0.257,0.951-0.257,0.951-0.257c0.463,0,0.694-0.051,0.694-0.051
			c0.771,0,1.286,0.18,1.286,0.18c0.514,0.18,0.874,0.488,0.874,0.488c0.36,0.308,0.591,0.745,0.591,0.745
			c0.231,0.437,0.411,0.9,0.411,0.9l4.654,12.004c0.129,0.283,0.231,0.463,0.231,0.463c0.103,0.18,0.257,0.206,0.257,0.206
			c0.129,0,0.231-0.18,0.231-0.18c0.103-0.18,0.257-0.488,0.257-0.488l4.654-12.004c0.283-0.771,0.617-1.208,0.617-1.208
			c0.334-0.437,0.771-0.694,0.771-0.694c0.437-0.257,0.849-0.334,0.849-0.334c0.411-0.077,0.926-0.077,0.926-0.077
			c1.26,0,2.083,0.565,2.083,0.565c0.823,0.565,0.823,1.799,0.823,1.799v15.834h-3.394l0.103-14.009c0-0.36-0.103-0.437-0.103-0.437
			c-0.103-0.077-0.206-0.103-0.206-0.103c-0.129,0-0.257,0.206-0.257,0.206c-0.129,0.206-0.18,0.386-0.18,0.386L190.496,62.148z"/>
	</g>
	<g>
		
			<linearGradient id="SVGID_10_" gradientUnits="userSpaceOnUse" x1="-525.0824" y1="749.8303" x2="-524.8121" y2="749.8303" gradientTransform="matrix(0 109.4917 87.6285 0 -65675.6641 57532.5742)">
			<stop  offset="0" style="stop-color:#FFCB32"/>
			<stop  offset="1" style="stop-color:#CD9900"/>
		</linearGradient>
		<path style="fill:url(#SVGID_10_);" d="M38.245,50.762h-8.882v-2.96h8.882V50.762z M38.245,56.682h-8.882v-2.96h8.882V56.682z
			 M38.245,62.601h-8.882v-2.96h8.882V62.601z M26.402,50.762h-2.961v-2.96h2.961V50.762z M26.402,56.682h-2.961v-2.96h2.961V56.682
			z M26.402,62.601h-2.961v-2.96h2.961V62.601z M39.726,40.404H21.961c-1.628,0-2.961,1.332-2.961,2.96V67.04
			c0,1.628,1.332,2.96,2.961,2.96h17.765c1.628,0,2.961-1.332,2.961-2.96V43.363C42.687,41.735,41.354,40.404,39.726,40.404z"/>
	</g>
</g>
</svg>
