<svg version="1.1" id="Слой_1" xmlns="http://www.w3.org/2000/svg" x="0" y="0" viewBox="0 0 220 127.017" xml:space="preserve"><path d="M211.687 109.459l-98.487 17.28a18.54 18.54 0 01-6.4 0l-98.487-17.28A10.05 10.05 0 010 99.56V0h220v99.56a10.05 10.05 0 01-8.313 9.899z" fill="#fff"/><linearGradient id="SVGID_1_" gradientUnits="userSpaceOnUse" x1="6.5" y1="60.759" x2="213.5" y2="60.759"><stop offset="0" stop-color="#f5f8fb"/><stop offset="1" stop-color="#e9eef7"/></linearGradient><path d="M213 1v91.56c0 4.88-3.283 9.055-7.784 9.899l-92.219 17.28c-1.982.371-4.01.371-5.993 0l-92.219-17.28C10.283 101.615 7 97.44 7 92.56V1" fill="none" stroke="url(#SVGID_1_)" stroke-miterlimit="10"/><g id="Слой_2"><linearGradient id="SVGID_2_" gradientUnits="userSpaceOnUse" x1="-527.175" y1="744.768" x2="-526.905" y2="744.768" gradientTransform="matrix(0 68.0857 562.9786 0 -419232.719 35938.973)"><stop offset="0" stop-color="#323232"/><stop offset="1"/></linearGradient><path fill="url(#SVGID_2_)" d="M53.978 64.101V48.808h-7.02v-2.699h17.46v2.699h-7.045v15.293z"/><linearGradient id="SVGID_3_" gradientUnits="userSpaceOnUse" x1="-527.175" y1="744.8" x2="-526.905" y2="744.8" gradientTransform="matrix(0 68.0857 562.9786 0 -419232.719 35938.973)"><stop offset="0" stop-color="#323232"/><stop offset="1"/></linearGradient><path d="M65.704 49.167c0-.565.103-1.182.103-1.182.103-.617.643-1.157.643-1.157a2.513 2.513 0 011.054-.591c.566-.129 1.106-.129 1.106-.129h8.537c.463 0 .977.026.977.026a4.242 4.242 0 011.029.206c.514.18.977.488.977.488.463.308.874.925.874.925a4.88 4.88 0 01.771 1.953c.129 1.028.129 2.005.129 2.005 0 .977-.103 2.005-.103 2.005-.103 1.028-.669 2.056-.669 2.056-.18.334-.437.643-.437.643-.257.308-.643.591-.643.591-.386.283-.977.437-.977.437-.591.154-1.337.18-1.337.18h-2.314v.129l6.84 6.349h-4.269l-5.914-5.835c-.283-.283-.566-.694-.566-.694-.283-.411-.283-.823-.283-.823v-.411c0-.54.386-.874.386-.874.386-.334 1.131-.36 1.131-.36h3.394c.437 0 .951-.129.951-.129.514-.129.9-.668.9-.668.129-.206.206-.54.206-.54.077-.334.129-.668.129-.668.051-.334.051-.694.051-.694 0-.36.026-.565.026-.565 0-1.08-.18-1.645-.18-1.645-.18-.565-.463-.848-.463-.848-.411-.411-.951-.463-.951-.463-.54-.051-.951-.077-.951-.077h-5.503c-.283 0-.489.026-.489.026-.206.026-.411.257-.411.257-.283.231-.309.463-.309.463-.026.231-.051.54-.051.54v14.009h-3.394V49.167z" fill="url(#SVGID_3_)"/><linearGradient id="SVGID_4_" gradientUnits="userSpaceOnUse" x1="-527.175" y1="744.832" x2="-526.905" y2="744.832" gradientTransform="matrix(0 68.0857 562.9786 0 -419232.719 35938.973)"><stop offset="0" stop-color="#323232"/><stop offset="1"/></linearGradient><path d="M87.304 64.101c-.591 0-1.106-.051-1.106-.051-.514-.051-.951-.514-.951-.514-.463-.437-.566-1.002-.566-1.002-.103-.565-.103-1.105-.103-1.105v-12.75c0-.54.154-1.028.154-1.028.154-.488.463-.848.463-.848.437-.488 1.029-.591 1.029-.591.591-.103 1.131-.103 1.131-.103h11.546v2.699h-9.72c-.231 0-.463.026-.463.026-.231.026-.463.231-.463.231-.206.206-.231.437-.231.437l-.051.437v3.624h10.671v2.699H87.973v4.215c0 .488.257.694.257.694.154.154.437.18.437.18.283.026.72.051.72.051h9.617v2.699h-11.7z" fill="url(#SVGID_4_)"/><linearGradient id="SVGID_5_" gradientUnits="userSpaceOnUse" x1="-527.175" y1="744.864" x2="-526.905" y2="744.864" gradientTransform="matrix(0 68.0857 562.9786 0 -419232.719 35938.973)"><stop offset="0" stop-color="#323232"/><stop offset="1"/></linearGradient><path d="M118.547 61.762c0 1.362-.771 1.954-.771 1.954-.771.591-1.903.591-1.903.591-.823 0-1.569-.283-1.569-.283-.746-.283-1.337-1.234-1.337-1.234l-7.586-11.978a3.631 3.631 0 00-.283-.36c-.077-.077-.129-.077-.129-.077-.103 0-.231.103-.231.103-.129.103-.129.411-.129.411v13.212h-3.291V48.345c0-1.157.72-1.799.72-1.799.72-.643 2.031-.643 2.031-.643 1.209 0 1.851.411 1.851.411.643.411 1.003 1.002 1.003 1.002l7.637 12.055c.103.129.154.283.154.283.051.154.257.154.257.154.206 0 .231-.154.231-.154.026-.154.051-.283.051-.283V46.109h3.291v15.653z" fill="url(#SVGID_5_)"/><linearGradient id="SVGID_6_" gradientUnits="userSpaceOnUse" x1="-527.175" y1="744.9" x2="-526.905" y2="744.9" gradientTransform="matrix(0 68.0857 562.9786 0 -419232.719 35938.973)"><stop offset="0" stop-color="#323232"/><stop offset="1"/></linearGradient><path d="M125.027 60.169v.514c0 .231.231.463.231.463.18.206.411.231.411.231.231.026.463.026.463.026h3.909c1.414 0 2.34-.36 2.34-.36.926-.36 1.543-1.311 1.543-1.311.334-.514.617-1.645.617-1.645.283-1.131.283-3.444.283-3.444 0-.565-.026-1.182-.026-1.182a6.556 6.556 0 00-.18-1.208c-.154-.591-.386-1.131-.386-1.131-.231-.54-.669-1.002-.669-1.002a3.944 3.944 0 00-.849-.668c-.463-.257-1.003-.386-1.003-.386-.54-.129-1.029-.206-1.029-.206-.489-.077-.977-.051-.977-.051h-3.523c-.154 0-.386.026-.386.026-.231.026-.411.154-.411.154-.154.129-.257.36-.257.36-.103.231-.103.54-.103.54v10.28zm-.643 3.932c-1.003 0-1.44-.206-1.44-.206-.437-.206-.566-.283-.566-.283-.257-.206-.489-.617-.489-.617-.231-.411-.257-1.182-.257-1.182V48.988c0-.514.077-1.054.077-1.054.077-.54.54-1.054.54-1.054.206-.206.643-.488.643-.488.437-.283 1.286-.283 1.286-.283h7.046c1.877 0 3.163.617 3.163.617a7.584 7.584 0 012.109 1.517 6.575 6.575 0 011.003 1.542c.36.823.566 1.696.566 1.696.206.874.206 1.748.206 1.748 0 .874.051 1.671.051 1.671 0 .745-.026 1.645-.026 1.645-.026.9-.206 1.851-.206 1.851a15.22 15.22 0 01-.489 1.851c-.309.9-.874 1.645-.874 1.645-.283.36-.694.745-.694.745-.411.386-1.029.72-1.029.72-.617.334-1.44.54-1.44.54-.823.206-1.877.206-1.877.206h-7.303z" fill="url(#SVGID_6_)"/><linearGradient id="SVGID_7_" gradientUnits="userSpaceOnUse" x1="-527.175" y1="744.932" x2="-526.905" y2="744.932" gradientTransform="matrix(0 68.0857 562.9786 0 -419232.719 35938.973)"><stop offset="0" stop-color="#323232"/><stop offset="1"/></linearGradient><path d="M147.938 64.101a24.02 24.02 0 01-1.389-.051c-.746-.051-1.491-.283-1.491-.283-.746-.231-1.491-.643-1.491-.643-.746-.411-1.363-1.131-1.363-1.131-.643-.72-1.003-1.568-1.003-1.568a10.36 10.36 0 01-.54-1.722 13.804 13.804 0 01-.231-1.722c-.051-.848-.051-1.619-.051-1.619 0-.951.051-1.902.051-1.902.051-.951.257-1.876.257-1.876.206-.925.514-1.722.514-1.722.309-.797.926-1.491.926-1.491.669-.797 1.491-1.234 1.491-1.234.823-.437 1.646-.694 1.646-.694.823-.257 1.543-.283 1.543-.283.72-.026 1.209-.051 1.209-.051h7.226v2.699h-5.631c-.746 0-1.44.026-1.44.026a4.972 4.972 0 00-1.286.231 6.81 6.81 0 00-1.106.514c-.514.308-.9.9-.9.9-.411.591-.694 1.696-.694 1.696-.283 1.105-.309 3.136-.309 3.136 0 1.002.077 1.722.077 1.722.077.72.206 1.26.206 1.26.129.54.283.848.283.848.154.308.283.54.283.54.694 1.054 1.903 1.388 1.903 1.388 1.209.334 2.803.334 2.803.334h6.094v2.699h-7.587z" fill="url(#SVGID_7_)"/><linearGradient id="SVGID_8_" gradientUnits="userSpaceOnUse" x1="-527.175" y1="744.964" x2="-526.905" y2="744.964" gradientTransform="matrix(0 68.0857 562.9786 0 -419232.719 35938.973)"><stop offset="0" stop-color="#323232"/><stop offset="1"/></linearGradient><path d="M157.838 49.167c0-.565.103-1.182.103-1.182.103-.617.643-1.157.643-1.157a2.513 2.513 0 011.054-.591c.566-.129 1.106-.129 1.106-.129h8.537c.463 0 .977.026.977.026a4.242 4.242 0 011.029.206c.514.18.977.488.977.488.463.308.874.925.874.925a4.88 4.88 0 01.771 1.953c.129 1.028.129 2.005.129 2.005 0 .977-.103 2.005-.103 2.005-.103 1.028-.669 2.056-.669 2.056-.18.334-.437.643-.437.643-.257.308-.643.591-.643.591-.386.283-.977.437-.977.437-.591.154-1.337.18-1.337.18h-2.314v.129l6.84 6.349h-4.269l-5.914-5.835c-.283-.283-.566-.694-.566-.694-.283-.411-.283-.823-.283-.823v-.411c0-.54.386-.874.386-.874.386-.334 1.131-.36 1.131-.36h3.394c.437 0 .951-.129.951-.129.514-.129.9-.668.9-.668.129-.206.206-.54.206-.54.077-.334.129-.668.129-.668.051-.334.051-.694.051-.694 0-.36.026-.565.026-.565 0-1.08-.18-1.645-.18-1.645-.18-.565-.463-.848-.463-.848-.411-.411-.951-.463-.951-.463-.54-.051-.951-.077-.951-.077h-5.503c-.283 0-.489.026-.489.026-.206.026-.411.257-.411.257-.283.231-.309.463-.309.463-.026.231-.051.54-.051.54v14.009h-3.394V49.167z" fill="url(#SVGID_8_)"/><linearGradient id="SVGID_9_" gradientUnits="userSpaceOnUse" x1="-527.175" y1="745.003" x2="-526.905" y2="745.003" gradientTransform="matrix(0 68.0857 562.9786 0 -419232.719 35938.973)"><stop offset="0" stop-color="#323232"/><stop offset="1"/></linearGradient><path d="M190.496 62.148c-.206.514-.386.9-.386.9-.18.386-.489.694-.489.694a1.732 1.732 0 01-.694.411c-.386.103-1.003.154-1.003.154-.643 0-1.054-.18-1.054-.18a2.944 2.944 0 01-.72-.463 2.034 2.034 0 01-.463-.694c-.154-.411-.334-.823-.334-.823l-4.603-12.004a2.12 2.12 0 00-.18-.36c-.129-.206-.257-.231-.257-.231-.206 0-.231.231-.231.231-.026.231-.051.308-.051.308l.077 14.009h-3.394V48.268c0-.874.386-1.337.386-1.337a3.26 3.26 0 01.874-.72c.489-.257.951-.257.951-.257.463 0 .694-.051.694-.051.771 0 1.286.18 1.286.18.514.18.874.488.874.488.36.308.591.745.591.745.231.437.411.9.411.9l4.654 12.004c.129.283.231.463.231.463.103.18.257.206.257.206.129 0 .231-.18.231-.18.103-.18.257-.488.257-.488l4.654-12.004c.283-.771.617-1.208.617-1.208.334-.437.771-.694.771-.694.437-.257.849-.334.849-.334.411-.077.926-.077.926-.077 1.26 0 2.083.565 2.083.565.823.565.823 1.799.823 1.799v15.834h-3.394l.103-14.009c0-.36-.103-.437-.103-.437a.65.65 0 00-.206-.103c-.129 0-.257.206-.257.206-.129.206-.18.386-.18.386l-4.601 12.003z" fill="url(#SVGID_9_)"/><linearGradient id="SVGID_10_" gradientUnits="userSpaceOnUse" x1="-525.082" y1="749.83" x2="-524.812" y2="749.83" gradientTransform="matrix(0 109.4917 87.6285 0 -65675.664 57532.574)"><stop offset="0" stop-color="#ffcb32"/><stop offset="1" stop-color="#cd9900"/></linearGradient><path d="M38.245 50.762h-8.882v-2.96h8.882v2.96zm0 5.92h-8.882v-2.96h8.882v2.96zm0 5.919h-8.882v-2.96h8.882v2.96zM26.402 50.762h-2.961v-2.96h2.961v2.96zm0 5.92h-2.961v-2.96h2.961v2.96zm0 5.919h-2.961v-2.96h2.961v2.96zm13.324-22.197H21.961A2.97 2.97 0 0019 43.364V67.04A2.969 2.969 0 0021.961 70h17.765a2.97 2.97 0 002.961-2.96V43.363a2.969 2.969 0 00-2.961-2.959z" fill="url(#SVGID_10_)"/></g></svg>