<svg width="20" height="20" xmlns="http://www.w3.org/2000/svg"><g id="Design" stroke="none" stroke-width="1" fill="none" fill-rule="evenodd"><g id="XS" transform="translate(-322 -614)" fill="#FFF" fill-rule="nonzero"><g id="Group-30" transform="translate(304 596)"><path d="M32.374 38a5.572 5.572 0 01-1.912-.342 20.385 20.385 0 01-7.402-4.718 20.384 20.384 0 01-4.718-7.402 5.532 5.532 0 01-.283-2.72 5.663 5.663 0 012.916-4.152A5.57 5.57 0 0123.64 18c.295 0 .55.206.611.494l.981 4.578a.625.625 0 01-.169.573l-1.676 1.676a16.451 16.451 0 007.291 7.29l1.676-1.675a.625.625 0 01.573-.17l4.578.982a.625.625 0 01.494.61 5.57 5.57 0 01-.666 2.667 5.662 5.662 0 01-4.153 2.916c-.27.04-.539.059-.807.059z" id="Shape"/></g></g></g></svg>