<svg width="48" height="48" xmlns="http://www.w3.org/2000/svg"><g id="Design" stroke="none" stroke-width="1" fill="none" fill-rule="evenodd"><g id="XL" transform="translate(-315 -2098)" fill="#2FBEFF" fill-rule="nonzero"><g id="Group-14" transform="translate(285 1864)"><g id="Group-13" transform="translate(0 194)"><g id="Group-16" transform="translate(30 40)"><path d="M32.058 30.502c-1.137 0-2.062-.8-2.062-1.785 0-.984.925-1.785 2.062-1.785 1.137 0 2.063.8 2.063 1.785a.938.938 0 001.875 0c0-1.718-1.28-3.162-3-3.554v-.488a.938.938 0 00-1.875 0v.488c-1.72.392-3 1.836-3 3.554 0 2.018 1.766 3.66 3.937 3.66 1.137 0 2.063.801 2.063 1.785 0 .985-.926 1.786-2.063 1.786s-2.062-.801-2.062-1.785a.938.938 0 00-1.875 0c0 1.717 1.28 3.162 3 3.554v.405a.938.938 0 001.875 0v-.405c1.72-.392 3-1.837 3-3.554 0-2.019-1.767-3.66-3.938-3.66zm10.268-5.576a12.215 12.215 0 00-4.99-4.416.937.937 0 10-.812 1.69 10.374 10.374 0 015.851 9.3c0 1.686-.416 3.359-1.202 4.837a.937.937 0 101.655.88A12.212 12.212 0 0044.25 31.5c0-2.34-.665-4.613-1.924-6.574zm-8.794-5.613h-.063a.938.938 0 000 1.875h.059a.938.938 0 00.004-1.875zM27.6 40.8a10.375 10.375 0 01-5.85-9.3c0-1.686.416-3.359 1.202-4.837a.937.937 0 10-1.655-.88 12.212 12.212 0 00-1.422 5.717c0 2.34.665 4.613 1.924 6.574a12.216 12.216 0 004.99 4.416.938.938 0 00.812-1.69zm3.056 1.013h-.054a.937.937 0 10-.008 1.874h.062a.938.938 0 000-1.874z" id="Path"/><path d="M36.32 16.14a4.303 4.303 0 00-.417-.765h2.44a4.317 4.317 0 004.313-4.313 4.317 4.317 0 00-4.312-4.312h-7.508a4.287 4.287 0 00.758-2.438A4.317 4.317 0 0027.28 0H4.313A4.317 4.317 0 000 4.313a4.317 4.317 0 004.313 4.312h7.507a4.287 4.287 0 00-.758 2.438c0 .904.28 1.743.758 2.437H9.375a4.317 4.317 0 00-4.313 4.313 4.31 4.31 0 001.633 3.375 4.306 4.306 0 000 6.75 4.306 4.306 0 000 6.75 4.306 4.306 0 00-1.633 3.374 4.317 4.317 0 004.313 4.313h11.048a15.895 15.895 0 0011.64 5.063C40.85 47.438 48 40.288 48 31.5c0-7.314-4.953-13.492-11.68-15.36zm2.024-7.515a2.44 2.44 0 012.437 2.438 2.44 2.44 0 01-2.437 2.437H15.375a2.44 2.44 0 01-2.438-2.438 2.44 2.44 0 012.438-2.437h22.969zM4.312 6.75a2.44 2.44 0 01-2.437-2.438 2.44 2.44 0 012.438-2.437H27.28a2.44 2.44 0 012.438 2.438A2.44 2.44 0 0127.28 6.75H4.313zm5.063 8.625h22.969c.377 0 .739.088 1.063.245a15.888 15.888 0 00-12.623 4.63H9.376a2.44 2.44 0 01-2.438-2.438 2.44 2.44 0 012.438-2.437zm0 6.75h9.808A15.892 15.892 0 0016.773 27H9.375a2.44 2.44 0 01-2.438-2.438 2.44 2.44 0 012.438-2.437zm0 6.75h6.968a15.975 15.975 0 00-.058 4.875h-6.91a2.44 2.44 0 01-2.438-2.438 2.44 2.44 0 012.438-2.437zm0 11.625a2.44 2.44 0 01-2.438-2.438 2.44 2.44 0 012.438-2.437h7.292a15.875 15.875 0 002.25 4.875H9.375zm22.688 5.063C24.309 45.563 18 39.254 18 31.5c0-7.754 6.309-14.062 14.063-14.062 7.754 0 14.062 6.308 14.062 14.062s-6.308 14.063-14.062 14.063z" id="Shape"/></g></g></g></g></g></svg>