<?xml version="1.0" encoding="UTF-8"?>
<svg width="641px" height="577px" viewBox="0 0 641 577" version="1.1" xmlns="http://www.w3.org/2000/svg" xmlns:xlink="http://www.w3.org/1999/xlink">
    <title>Path_22</title>
    <defs>
        <linearGradient x1="55.6286813%" y1="4.21793457%" x2="43.1327731%" y2="100%" id="linearGradient-1">
            <stop stop-color="#2FBEFF" offset="0%"></stop>
            <stop stop-color="#1B70B6" offset="100%"></stop>
        </linearGradient>
    </defs>
    <g id="Design" stroke="none" stroke-width="1" fill="none" fill-rule="evenodd">
        <g id="blob-shape-copy" transform="translate(312.796928, 292.796928) scale(-1, 1) rotate(-105.000000) translate(-312.796928, -292.796928) translate(-91.203072, -111.203072)" fill="url(#linearGradient-1)" fill-rule="nonzero">
            <path d="M569.309343,109.293653 C598.683937,146.851785 610.657745,192.42117 607.212045,231.874437 C603.766345,271.413847 584.987279,304.837138 565.002218,335.84844 C544.931014,366.773599 411.170093,522.331858 405.513239,542.130848 C399.856385,561.929838 511.032216,904.733539 273.018754,710.936163 C67.0339357,543.215845 360.586055,369.099447 339.567284,331.282887 C318.634655,293.380185 284.436081,263.919449 272.892986,222.743332 C261.436032,181.481072 272.634558,128.589574 305.282567,91.5482975 C337.930576,54.5070206 392.028069,33.402107 442.507577,37.7092322 C492.987084,42.0163574 539.848607,71.6493789 569.309343,109.293653 Z" id="Path_22" transform="translate(403.565295, 403.618954) rotate(45.000000) translate(-403.565295, -403.618954) "></path>
        </g>
    </g>
</svg>