<?xml version="1.0" encoding="UTF-8"?>
<svg width="1082px" height="500px" viewBox="0 0 1082 500" version="1.1" xmlns="http://www.w3.org/2000/svg" xmlns:xlink="http://www.w3.org/1999/xlink">
    <title>Path_23</title>
    <defs>
        <linearGradient x1="68.1244281%" y1="31.019633%" x2="27.8874387%" y2="70.7290418%" id="linearGradient-1">
            <stop stop-color="#2FBEFF" offset="0%"></stop>
            <stop stop-color="#1B70B6" offset="100%"></stop>
        </linearGradient>
    </defs>
    <g id="Design" stroke="none" stroke-width="1" fill="none" fill-rule="evenodd">
        <g id="blob-shape-(1)-copy" transform="translate(499.796928, 243.735986) scale(-1, 1) translate(-499.796928, -243.735986) translate(-104.203072, -226.264014)" fill="url(#linearGradient-1)" fill-rule="nonzero">
            <path d="M1098.28713,164.852177 C1230.80983,261.838668 975.814618,268.702481 991.433469,320.130575 C1006.9053,371.415651 1044.43975,407.658945 1058.18938,453.499376 C1071.94201,499.19779 1061.7708,554.636359 1028.8219,587.441245 C995.872995,620.246132 940.144392,630.422338 897.884385,606.63852 C855.479361,582.858702 826.400916,525.128863 775.974942,519.683217 C725.40195,514.239572 321.79213,813.862071 260.335849,812.861466 C198.879568,811.855834 51.0310509,417.277084 73.9517666,376.163213 C96.8724822,335.049342 342.283558,356.406873 390.850312,322.312833 C439.556083,288.361811 518.396424,419.632363 650.674096,380.047674 C799.236698,327.815485 553.506584,258.185235 730.253525,178.568803 C775.091837,158.366409 985.098718,82.0163631 1098.28713,164.852177 Z" id="Path_23" transform="translate(604.083663, 469.980483) rotate(-164.991086) translate(-604.083663, -469.980483) "></path>
        </g>
    </g>
</svg>