<svg width="48" height="49" xmlns="http://www.w3.org/2000/svg"><g id="Design" stroke="none" stroke-width="1" fill="none" fill-rule="evenodd"><g id="XL" transform="translate(-885 -2494)" fill="#2FBEFF" fill-rule="nonzero"><g id="Group-14" transform="translate(285 1864)"><g id="Group-13-Copy-3" transform="translate(570 590)"><g id="Group-17" transform="translate(30 40)"><path d="M23.832 6.1a.944.944 0 00.945-.945V.945a.944.944 0 00-1.889 0v4.21c0 .522.423.944.944.944z" id="Path"/><path d="M46.911 32.436l-1.668-1.663a3.13 3.13 0 00-2.226-.92c-.54 0-1.056.135-1.515.386L38.36 27.1l.153-.152a3.277 3.277 0 000-4.627 3.241 3.241 0 00-1.643-.889c.085-.294.13-.603.13-.919 0-.877-.34-1.699-.958-2.313a3.241 3.241 0 00-1.643-.889c.085-.294.13-.603.13-.918 0-.877-.34-1.7-.958-2.315a3.256 3.256 0 00-1.642-.886 3.282 3.282 0 00-.827-3.236 3.278 3.278 0 00-2.666-.934l-6.228-1.18c-.95-.18-2.136-.299-2.885.384a1.705 1.705 0 00-.143.148 3.283 3.283 0 00-3.444.758 3.248 3.248 0 00-.957 2.314c0 .316.045.624.13.919a3.236 3.236 0 00-1.64.887 3.244 3.244 0 00-.96 2.312c0 .316.044.626.13.921a3.243 3.243 0 00-1.643.886 3.251 3.251 0 00-.958 2.316c0 .671.2 1.31.572 1.85a3.254 3.254 0 00-1.258.783 3.277 3.277 0 00.001 4.63l.153.152-3.144 3.137a3.157 3.157 0 00-3.572.62L.921 32.521A3.125 3.125 0 000 34.748c0 .844.327 1.635.92 2.227l2.083 2.08a.944.944 0 101.335-1.335l-2.083-2.08a1.25 1.25 0 01-.367-.892c0-.338.13-.654.366-.89l1.67-1.664a1.264 1.264 0 011.54-.19.952.952 0 00.39.335l9.57 9.557a.941.941 0 00.456.46c.202.229.314.521.314.833 0 .338-.13.655-.367.891l-1.667 1.665a1.27 1.27 0 01-1.785.002l-2.083-2.083a.944.944 0 10-1.335 1.335l2.084 2.085a3.15 3.15 0 002.225.916c.807 0 1.613-.306 2.228-.917l1.668-1.667c.594-.593.92-1.384.92-2.227 0-.602-.167-1.176-.478-1.672l3.538-3.533.011-.012c.405-.419 1.533-.34 2.624-.265.775.054 1.64.114 2.484.017l3.874 3.87a3.134 3.134 0 00-.385 1.511c0 .843.327 1.633.92 2.226l1.67 1.667a3.129 3.129 0 002.226.919c.842 0 1.633-.327 2.226-.92l10.12-10.107c.593-.592.92-1.383.92-2.227a3.13 3.13 0 00-.92-2.227zM21.856 9.697l4.095.775-2.451 2.45c-.38-.181-.9-.521-1.47-1.067-.78-.746-1.338-1.609-1.389-2.146v-.001a.825.825 0 01-.004-.093c.123-.03.451-.064 1.219.082zm-4.787.77a1.393 1.393 0 011.762-.167c.306 1.284 1.401 2.448 1.894 2.92.366.349 1.538 1.397 2.72 1.685.16.23.248.503.248.791a1.375 1.375 0 01-1.384 1.383c-.373 0-.72-.143-.982-.404v-.001l-4.258-4.25a1.372 1.372 0 01-.403-.979c0-.371.143-.719.403-.978zm-2.467 4.12c.26-.26.607-.404.98-.404.371 0 .72.144.982.405l3.428 3.422c.54.54.54 1.42.002 1.96-.261.26-.61.403-.983.403s-.723-.143-.983-.402l-2.601-2.601-.013-.012-.813-.813a1.374 1.374 0 01-.405-.98c0-.37.144-.717.406-.978zm-2.472 4.119c.26-.26.608-.403.981-.403.37 0 .716.141.974.396l2.61 2.608c.26.26.403.607.403.978s-.143.718-.404.978c-.26.26-.608.403-.98.403-.374 0-.723-.144-.983-.403l-.946-.944v-.001l-1.655-1.652a1.375 1.375 0 01-.404-.98c0-.371.143-.72.404-.98zm-1.644 4.949c.26-.261.61-.405.982-.405s.721.144.982.404l.947.946c.26.26.404.607.404.978s-.143.718-.406.98c-.26.26-.607.403-.98.403-.372 0-.72-.143-.982-.405l-.119-.119-.004-.004-.005-.005-.819-.815a1.387 1.387 0 010-1.958zm19.24 10.73a.944.944 0 00-1.335 0l-.84.838c-.798.798-2.244.698-3.643.6-1.519-.105-3.09-.214-4.106.83l-3.477 3.473-8.697-8.683 3.078-3.073a3.259 3.259 0 001.71.48c.877 0 1.7-.34 2.314-.956.619-.616.96-1.439.96-2.316l-.001-.024h.024c.877 0 1.699-.339 2.314-.953.619-.617.96-1.439.96-2.316l-.001-.024h.025a3.262 3.262 0 003.273-3.294h.025c.878 0 1.7-.34 2.316-.956a3.248 3.248 0 00.956-2.315 3.25 3.25 0 00-.477-1.706l2.697-2.697a1.385 1.385 0 01.792-.39c.417-.058.855.07 1.174.388.54.541.54 1.421.002 1.96l-.822.818-.008.008-.947.945a.944.944 0 101.335 1.336l.825-.824.125-.125a1.39 1.39 0 011.96.005c.26.259.403.606.403.977 0 .372-.144.719-.406.98l-.826.828-.946.942a.944.944 0 101.332 1.338l.95-.946c.26-.26.608-.404.98-.404.373 0 .721.144.983.406.26.259.404.606.404.977s-.144.719-.405.98l-1.648 1.647a.944.944 0 001.336 1.335l.807-.808.014-.012c.26-.26.608-.404.98-.404.373 0 .72.143.982.405a1.386 1.386 0 010 1.957l-.821.82h-.001v.001l-1.304 1.301a.944.944 0 001.335 1.336l.637-.636 3.054 3.05-8.696 8.686-3.115-3.112c.217-.14.425-.304.62-.5l.84-.838a.944.944 0 000-1.335zm15.851 1.17l-10.12 10.107a1.253 1.253 0 01-.891.366c-.339 0-.656-.13-.893-.367l-1.668-1.666a1.248 1.248 0 01-.367-.89c0-.337.13-.653.367-.89l10.12-10.106c.236-.237.553-.367.892-.367.338 0 .655.13.892.367l1.668 1.663c.237.237.367.553.367.891 0 .339-.13.655-.367.891z" id="Shape"/><path d="M11.295 5.303a.941.941 0 001.336-.001.944.944 0 00-.002-1.335L9.19.533A.944.944 0 107.855 1.87l3.44 3.433zm24.408.277a.941.941 0 00.667-.277l3.438-3.434A.944.944 0 1038.473.534l-3.438 3.433a.944.944 0 00.668 1.612zM5.805 40.613a.944.944 0 00.012 1.335l.003.003a.942.942 0 001.334-.013.946.946 0 00-1.349-1.325zm26.23-7.588a.945.945 0 10-.424-1.788l-.005.003a.944.944 0 00.43 1.785z" id="Path"/></g></g></g></g></g></svg>