<svg id="_inst_ic" xmlns="http://www.w3.org/2000/svg" width="38" height="35.28"><path id="Forma_1" data-name="Forma 1" class="cls-2" d="M867.114 6483.66h-12.228a6.238 6.238 0 00-6.225 6.23v12.23a6.23 6.23 0 006.225 6.22h12.228a6.229 6.229 0 006.225-6.22v-12.23a6.238 6.238 0 00-6.225-6.23zm3.539 18.46a3.545 3.545 0 01-3.539 3.54h-12.228a3.545 3.545 0 01-3.539-3.54v-12.23a3.545 3.545 0 013.539-3.54h12.228a3.545 3.545 0 013.539 3.54v12.23zm-3.093-11.16a1.505 1.505 0 111.5-1.5 1.5 1.5 0 01-1.5 1.5zm-6.56-1.31a6.355 6.355 0 106.355 6.35 6.362 6.362 0 00-6.355-6.35zm0 10.02a3.67 3.67 0 113.67-3.67 3.67 3.67 0 01-3.67 3.67z" transform="translate(-842 -6477.91)"/></svg>