<?xml version="1.0" encoding="UTF-8"?>
<svg width="32px" height="32px" viewBox="0 0 32 32" version="1.1" xmlns="http://www.w3.org/2000/svg" xmlns:xlink="http://www.w3.org/1999/xlink">
    <title>icon-instagram</title>
    <g id="Design" stroke="none" stroke-width="1" fill="none" fill-rule="evenodd">
        <g id="XL" transform="translate(-287.000000, -7095.000000)" fill="#2FBEFF" fill-rule="nonzero">
            <g id="Group-33" transform="translate(0.000000, 6964.000000)">
                <g id="icon-instagram" transform="translate(287.000000, 131.000000)">
                    <path d="M18.8957681,15.8590145 C18.8957681,17.5349011 17.5373741,18.8935712 15.8614875,18.8939125 C14.1856009,18.8942537 12.8266541,17.5361369 12.825971,15.8602505 C12.8252885,14.184364 14.1831282,12.8251403 15.8590145,12.8241154 C16.664241,12.8236237 17.436656,13.1431538 18.0062111,13.712361 C18.5757663,14.2815683 18.8957681,15.0537878 18.8957681,15.8590145 L18.8957681,15.8590145 Z" id="Path_282"></path>
                    <path d="M22.9602319,10.4885797 C22.6538123,9.69405584 22.0258282,9.06607175 21.2313043,8.75965217 C20.68951,8.5589161 20.1172247,8.45286761 19.5394783,8.44614493 C18.5785507,8.40162319 18.2910145,8.39234783 15.8590145,8.39234783 C13.4270145,8.39234783 13.1394783,8.39234783 12.1785507,8.44614493 C11.6008115,8.45294121 11.0285386,8.55898739 10.4867246,8.75965217 C9.69220077,9.06607175 9.06421668,9.69405584 8.7577971,10.4885797 C8.55709669,11.0303839 8.45104935,11.602663 8.44428986,12.1804058 C8.39976812,13.1413333 8.39049275,13.4288696 8.39049275,15.8608696 C8.39049275,18.2928696 8.39976812,18.5804058 8.44428986,19.5413333 C8.45101254,20.1190797 8.55706103,20.6913651 8.7577971,21.2331594 C9.06421668,22.0276833 9.69220077,22.6556674 10.4867246,22.962087 C11.0284894,23.1629302 11.6007935,23.2689821 12.1785507,23.2755942 C13.1394783,23.3201159 13.4270145,23.3293913 15.8590145,23.3293913 C18.2910145,23.3293913 18.5785507,23.3293913 19.5394783,23.2755942 C20.1172355,23.2689821 20.6895395,23.1629302 21.2313043,22.962087 C22.0258282,22.6556674 22.6538123,22.0276833 22.9602319,21.2331594 C23.1608611,20.6913356 23.2669061,20.1190689 23.2737391,19.5413333 C23.3182609,18.5804058 23.3275362,18.2928696 23.3275362,15.8608696 C23.3275362,13.4288696 23.3275362,13.1413333 23.2737391,12.1804058 C23.267164,11.602645 23.1611109,11.0303346 22.9602319,10.4885797 Z M15.8608696,20.5356522 C13.9693462,20.5356522 12.2640744,19.396226 11.5402197,17.6486863 C10.8163651,15.9011465 11.2164783,13.8896413 12.5539873,12.5521323 C13.8914964,11.2146233 15.9030016,10.81451 17.6505413,11.5383647 C19.3980811,12.2622193 20.5375072,13.9674911 20.5375072,15.8590145 C20.5375072,18.4418502 18.4437052,20.5356522 15.8608696,20.5356522 L15.8608696,20.5356522 Z M20.7230145,12.0895072 C20.1195674,12.0895072 19.6303768,11.6003167 19.6303768,10.9968696 C19.6303768,10.3934224 20.1195674,9.90423188 20.7230145,9.90423188 C21.3264616,9.90423188 21.8156538,10.3934224 21.8156538,10.9968696 C21.8161457,11.2872981 21.7009919,11.5659734 21.4956276,11.7713377 C21.2902633,11.976702 21.011588,12.0918558 20.7211594,12.0913639 L20.7230145,12.0895072 Z" id="Path_283"></path>
                    <path d="M15.8608696,-5.06647864e-13 C7.10115319,-5.06647864e-13 -3.21288889e-14,7.10115319 -3.21288889e-14,15.8608696 C-3.21288889e-14,24.6205859 7.10115319,31.7217391 15.8608696,31.7217391 C24.6205859,31.7217391 31.7217391,24.6205859 31.7217391,15.8608696 C31.7207148,7.1015775 24.6201616,0.00102429891 15.8608696,-5.06647864e-13 Z M24.9136232,19.6155362 C24.898789,20.3712426 24.7557718,21.1189469 24.4906667,21.8267826 C24.016742,23.0489487 23.049608,24.0147356 21.8267826,24.4869565 C21.1189469,24.7520616 20.3712426,24.8950789 19.6155362,24.909913 C18.6434783,24.9544348 18.3336812,24.9655652 15.8608696,24.9655652 C13.388058,24.9655652 13.0782609,24.9544348 12.1062029,24.909913 C11.3504966,24.8950789 10.6027922,24.7520616 9.89495652,24.4869565 C8.67353785,24.0138678 7.70787132,23.0482013 7.23478261,21.8267826 C6.9696775,21.1189469 6.82666023,20.3712426 6.81182609,19.6155362 C6.76730435,18.6434783 6.75617391,18.3336812 6.75617391,15.8608696 C6.75617391,13.388058 6.76730435,13.0782609 6.81182609,12.1062029 C6.82666023,11.3504966 6.9696775,10.6027922 7.23478261,9.89495652 C7.70826562,8.6737948 8.6737948,7.70826562 9.89495652,7.23478261 C10.6026202,6.96858412 11.3503014,6.82431678 12.1062029,6.80811594 C13.0782609,6.7635942 13.388058,6.75246377 15.8608696,6.75246377 C18.3336812,6.75246377 18.6434783,6.7635942 19.6155362,6.80811594 C20.3712201,6.82316474 21.1188886,6.96617516 21.8267826,7.23107246 C23.0488198,7.70519466 24.014538,8.6722597 24.4869565,9.89495652 C24.7520616,10.6027922 24.8950789,11.3504966 24.909913,12.1062029 C24.9544348,13.0782609 24.9637101,13.388058 24.9637101,15.8608696 C24.9637101,18.3336812 24.9581449,18.6434783 24.9136232,19.6155362 Z" id="Path_284"></path>
                </g>
            </g>
        </g>
    </g>
</svg>