<svg width="20" height="28" xmlns="http://www.w3.org/2000/svg"><g id="Design" stroke="none" stroke-width="1" fill="none" fill-rule="evenodd"><g id="XL" transform="translate(-857 -7165)" fill="#2FBEFF" fill-rule="nonzero"><g id="Group-33" transform="translate(0 6964)"><g id="Group-7-Copy" transform="translate(855 50)"><g id="icon-location" transform="translate(2 151)"><path d="M9.6 0C4.307 0 0 4.307 0 9.6a9.58 9.58 0 001.433 5.048l7.62 12.28a.8.8 0 00.68.379h.007a.8.8 0 00.68-.39l7.426-12.399A9.589 9.589 0 0019.2 9.6c0-5.293-4.307-9.6-9.6-9.6zm6.873 13.697L9.72 24.97 2.793 13.805A7.99 7.99 0 011.589 9.6c0-4.411 3.6-8.01 8.011-8.01s8.005 3.599 8.005 8.01a7.993 7.993 0 01-1.132 4.097z" id="Shape"/><path d="M9.6 4.8a4.805 4.805 0 00-4.8 4.8c0 2.63 2.118 4.8 4.8 4.8 2.715 0 4.8-2.2 4.8-4.8 0-2.647-2.153-4.8-4.8-4.8zm0 8.01A3.213 3.213 0 016.39 9.6 3.222 3.222 0 019.6 6.39a3.217 3.217 0 013.205 3.21A3.207 3.207 0 019.6 12.81z" id="Shape"/></g></g></g></g></g></svg>