<?xml version="1.0" encoding="UTF-8"?>
<svg width="24px" height="18px" viewBox="0 0 24 18" version="1.1" xmlns="http://www.w3.org/2000/svg" xmlns:xlink="http://www.w3.org/1999/xlink">
    <title>icon-mail</title>
    <g id="Design" stroke="none" stroke-width="1" fill="none" fill-rule="evenodd">
        <g id="XL" transform="translate(-855.000000, -7122.000000)" fill="#2FBEFF" fill-rule="nonzero">
            <g id="Group-33" transform="translate(0.000000, 6964.000000)">
                <g id="Group-7-Copy" transform="translate(855.000000, 50.000000)">
                    <path d="M21.7499843,108 L2.25001566,108 C1.00928071,108 0,109.009279 0,110.250013 L0,123.749987 C0,124.990721 1.00928071,126 2.25001566,126 L21.7499843,126 C22.9907193,126 24,124.990721 24,123.749987 L24,110.250013 C24,109.009279 22.9907193,108 21.7499843,108 Z M21.7499843,109.499992 C21.8518843,109.499992 21.9488246,109.521133 22.0374485,109.558056 L12,118.257566 L1.96250141,109.558056 C2.05112533,109.521183 2.14806558,109.499992 2.24996556,109.499992 L21.7499843,109.499992 Z M21.7499843,124.499958 L2.25001566,124.499958 C1.83620355,124.499958 1.49999374,124.163799 1.49999374,123.749937 L1.49999374,111.142813 L11.5085355,119.816874 C11.649913,119.939164 11.8249565,119.999983 11.9999937,119.999983 C12.1750435,119.999983 12.350087,119.939214 12.4914645,119.816874 L22.5000063,111.142813 L22.5000063,123.749987 C22.5000063,124.163799 22.1637965,124.499958 21.7499843,124.499958 L21.7499843,124.499958 Z" id="icon-mail"></path>
                </g>
            </g>
        </g>
    </g>
</svg>