<svg width="48" height="48" xmlns="http://www.w3.org/2000/svg"><g id="Design" stroke="none" stroke-width="1" fill="none" fill-rule="evenodd"><g id="XL" transform="translate(-885 -2098)" fill="#2FBEFF" fill-rule="nonzero"><g id="Group-14" transform="translate(285 1864)"><g id="Group-13-Copy" transform="translate(570 194)"><g id="Group-15" transform="translate(30 40)"><path d="M25.187 22.814a.938.938 0 10-1.327 1.325.938.938 0 001.327-1.325z" id="Path"/><path d="M37.119 10.882a4.686 4.686 0 00-6.63 0 4.694 4.694 0 000 6.629 4.694 4.694 0 006.63 0 4.685 4.685 0 000-6.63zm-1.326 5.303a2.816 2.816 0 01-3.978 0 2.816 2.816 0 010-3.978 2.811 2.811 0 013.978 0 2.811 2.811 0 010 3.978z" id="Shape"/><path d="M47.725.275A.934.934 0 0047.03 0c-.212.007-5.26.21-11.259 2.33-4.807 1.698-8.815 4.128-11.91 7.224a35.675 35.675 0 00-2.015 2.193c-3.06-1.801-5.513-1.236-7.064-.407-3.57 1.911-5.78 7.099-5.78 10.81a.938.938 0 001.601.662c1.883-1.882 4.205-1.765 4.964-1.665l.328.328a32.975 32.975 0 00-1.548 4.554 2.654 2.654 0 00.113 1.628 8.878 8.878 0 00-2.531 1.785c-2.414 2.413-2.904 8.295-2.923 8.544a.938.938 0 001.008 1.008c.25-.02 6.13-.51 8.544-2.923a8.878 8.878 0 001.785-2.53 2.647 2.647 0 001.629.112 32.979 32.979 0 004.553-1.548l.328.328c.1.759.217 3.081-1.665 4.964a.938.938 0 00.663 1.6c3.71 0 8.898-2.21 10.808-5.78.83-1.55 1.395-4.003-.407-7.064.764-.645 1.5-1.32 2.194-2.014 3.095-3.096 5.526-7.103 7.223-11.91 2.12-6 2.324-11.047 2.331-11.259a.938.938 0 00-.274-.696zM11.098 20.134c.582-2.818 2.274-5.911 4.569-7.14 1.533-.82 3.21-.74 4.992.236a37.906 37.906 0 00-3.939 6.42c-.014-.008-.183-.22-.496-.29-.13-.03-2.61-.564-5.126.774zm6.133 14.613c-1.289 1.289-4.313 1.969-6.224 2.246.278-1.911.958-4.935 2.246-6.224.722-.722 1.56-1.27 2.4-1.577l3.156 3.154c-.309.842-.856 1.679-1.578 2.4zm4.274-2.91c-.271.07-.585-.032-.819-.265a17420.51 17420.51 0 00-1.836-1.836l-2.421-2.421c-.234-.235-.336-.549-.267-.82.3-1.17.693-2.369 1.17-3.58l7.753 7.752a30.42 30.42 0 01-3.58 1.17zm13.5.497c-1.228 2.294-4.32 3.986-7.139 4.568.899-1.69 1.097-3.843.769-5.148-.077-.304-.274-.456-.285-.474a37.92 37.92 0 006.42-3.939c.976 1.783 1.056 3.46.236 4.993zm2.114-9.52a34.028 34.028 0 01-2.704 2.426 36.019 36.019 0 01-7.473 4.633l-8.814-8.815a36.013 36.013 0 014.632-7.473c.766-.95 1.582-1.86 2.426-2.704 2.777-2.778 6.362-4.988 10.657-6.58l7.855 7.856c-1.59 4.295-3.801 7.88-6.579 10.657zm7.254-12.634L37.82 3.627a42.149 42.149 0 018.226-1.673 42.155 42.155 0 01-1.673 8.226z" id="Shape"/><path d="M22.535 38.723a.938.938 0 00-1.326 0l-2.652 2.653a.938.938 0 001.327 1.325l2.65-2.652a.938.938 0 000-1.326zM9.277 25.465a.938.938 0 00-1.326 0l-2.652 2.651a.938.938 0 001.325 1.326l2.653-2.65a.938.938 0 000-1.327zm6.629 14.585a.938.938 0 00-1.326 0L8.23 46.4a.937.937 0 101.325 1.326l6.35-6.35a.937.937 0 000-1.326zm-7.5 0a.938.938 0 00-1.326 0L.73 46.4a.937.937 0 101.325 1.326l6.35-6.35a.937.937 0 000-1.326zm-.456-7.956a.938.938 0 00-1.326 0l-6.35 6.35A.938.938 0 001.6 39.772l6.35-6.35a.938.938 0 000-1.327zm21.214-13.258a.938.938 0 00-1.326 0l-1.326 1.326a.938.938 0 001.326 1.326l1.326-1.326a.938.938 0 000-1.326z" id="Path"/></g></g></g></g></g></svg>