<svg width="48" height="48" xmlns="http://www.w3.org/2000/svg" xmlns:xlink="http://www.w3.org/1999/xlink"><defs><linearGradient x1="50%" y1="0%" x2="54.278%" y2="97.505%" id="linearGradient-1"><stop stop-color="#2FBEFF" offset="0%"/><stop stop-color="#2930C3" offset="100%"/></linearGradient><path d="M78 86.4V88H30v-1.6h48zm-38.4-8a.8.8 0 01.8.8V84a.8.8 0 01-.8.8H34a.8.8 0 01-.8-.8v-4.8a.8.8 0 01.8-.8zm8.8-2.4a.8.8 0 01.8.8V84a.8.8 0 01-.8.8h-5.6a.8.8 0 01-.8-.8v-7.2a.8.8 0 01.8-.8zm8.8-4a.8.8 0 01.8.8V84a.8.8 0 01-.8.8h-5.6a.8.8 0 01-.8-.8V72.8a.8.8 0 01.8-.8zm8.8-5.6a.8.8 0 01.8.8V84a.8.8 0 01-.8.8h-5.6a.8.8 0 01-.8-.8V67.2a.8.8 0 01.8-.8zm8.8-11.2a.8.8 0 01.8.8v28a.8.8 0 01-.8.8h-5.6a.8.8 0 01-.8-.8V56a.8.8 0 01.8-.8zM38.8 80h-4v3.2h4V80zm8.8-2.4h-4v5.6h4v-5.6zm8.8-4h-4v9.6h4v-9.6zm8.8-5.6h-4v15.2h4V68zM74 56.8h-4v26.4h4V56.8zm-1.857-16.758a.8.8 0 01.973.401l3.2 6.4a.8.8 0 11-1.432.715L72.53 42.85l-1.29 3.69A44.292 44.292 0 0133.267 76l-.136-1.6a42.692 42.692 0 0036.596-28.388l1.265-3.611-4.635 2.316a.8.8 0 01-.716-1.432l6.4-3.2zM41.2 54.4V56H34v-1.6h7.2zm0-3.2v1.6H34v-1.6h7.2zm3.2-3.2v1.6H34V48h10.4zm0-3.2v1.6H34v-1.6h10.4z" id="path-2"/></defs><g id="Design" stroke="none" stroke-width="1" fill="none" fill-rule="evenodd"><g id="XL" transform="translate(-315 -2494)" fill-rule="nonzero"><g id="Group-14" transform="translate(285 1864)"><g id="Combined-Shape" transform="translate(0 590)"><use fill="url(#linearGradient-1)" xlink:href="#path-2"/><use fill="#2FBEFF" xlink:href="#path-2"/></g></g></g></g></svg>