<svg width="24" height="24" xmlns="http://www.w3.org/2000/svg"><g id="Design" stroke="none" stroke-width="1" fill="none" fill-rule="evenodd"><g id="XL" transform="translate(-855 -7072)" fill="#2FBEFF" fill-rule="nonzero"><g id="Group-33" transform="translate(0 6964)"><g id="Group-7-Copy" transform="translate(855 50)"><path d="M17.249 82a6.687 6.687 0 01-2.294-.41 24.462 24.462 0 01-8.883-5.662A24.46 24.46 0 01.41 67.045a6.638 6.638 0 01-.339-3.263 6.795 6.795 0 011.156-2.897A6.823 6.823 0 013.57 58.8a6.687 6.687 0 013.2-.799.75.75 0 01.733.593l1.177 5.493a.75.75 0 01-.203.688l-2.011 2.011a19.741 19.741 0 008.749 8.75l2.011-2.012a.75.75 0 01.688-.203l5.493 1.177a.75.75 0 01.593.733 6.683 6.683 0 01-.8 3.2 6.823 6.823 0 01-2.085 2.343 6.795 6.795 0 01-2.897 1.156 6.664 6.664 0 01-.97.071zM6.17 59.533a5.19 5.19 0 00-3.714 2.213 5.167 5.167 0 00-.636 4.787A22.748 22.748 0 0015.467 80.18a5.167 5.167 0 004.787-.636 5.195 5.195 0 002.213-3.714l-4.469-.958-2.1 2.1a.75.75 0 01-.85.15 21.236 21.236 0 01-10.17-10.17.75.75 0 01.15-.85l2.1-2.1-.958-4.47z" id="icon-phone"/></g></g></g></g></svg>