<?xml version="1.0" encoding="UTF-8"?>
<svg width="32px" height="32px" viewBox="0 0 32 32" version="1.1" xmlns="http://www.w3.org/2000/svg" xmlns:xlink="http://www.w3.org/1999/xlink">
    <title>icon-telegram</title>
    <g id="Design" stroke="none" stroke-width="1" fill="none" fill-rule="evenodd">
        <g id="XL" transform="translate(-431.000000, -7095.000000)" fill="#2FBEFF" fill-rule="nonzero">
            <g id="Group-33" transform="translate(0.000000, 6964.000000)">
                <g id="icon-telegram" transform="translate(431.000000, 131.000000)">
                    <path d="M16,0 C24.836556,0 32,7.163444 32,16 C32,24.836556 24.836556,32 16,32 C7.163444,32 0,24.836556 0,16 C0,7.163444 7.163444,0 16,0 Z M23.8573333,10.9626667 C24.0893333,9.88 23.464,9.44666667 22.748,9.70533333 L22.748,9.70533333 L7.32133333,15.6533333 C6.264,16.0666667 6.28266667,16.652 7.14,16.924 L7.14,16.924 L11.0893333,18.156 L20.2506667,12.388 C20.676,12.1053333 21.0706667,12.2653333 20.748,12.5493333 L20.748,12.5493333 L13.3346667,19.2466667 L13.0506667,23.3173333 C13.464,23.3173333 13.644,23.1373333 13.8573333,22.924 L13.8573333,22.924 L15.7866667,21.0653333 L19.7866667,24.0133333 C20.516,24.4266667 21.0373333,24.2133333 21.232,23.336 L21.232,23.336 L23.8586667,10.9613333 Z" id="Combined-Shape"></path>
                </g>
            </g>
        </g>
    </g>
</svg>