
<svg version="1.0" xmlns="http://www.w3.org/2000/svg"
 width="225.000000pt" height="225.000000pt" viewBox="0 0 225.000000 225.000000"
 preserveAspectRatio="xMidYMid meet">

<g transform="translate(0.000000,225.000000) scale(0.100000,-0.100000)"
fill="#000000" stroke="none">
<path d="M1037 1413 l-638 -255 3 -31 c3 -32 3 -32 173 -87 l169 -56 62 -194
c34 -107 67 -202 73 -212 20 -32 50 -19 129 55 42 39 87 80 98 90 22 18 24 17
200 -112 184 -135 216 -150 234 -109 16 36 250 1047 250 1080 0 40 -48 88 -87
87 -15 -1 -315 -116 -666 -256z m617 129 c-11 -9 -176 -156 -366 -326 l-346
-308 -11 -61 c-6 -34 -14 -83 -17 -109 -4 -27 -10 -48 -13 -48 -10 0 -91 304
-83 312 11 11 846 558 852 558 3 -1 -4 -8 -16 -18z"/>
</g>
</svg>
