<svg width="24" height="18" xmlns="http://www.w3.org/2000/svg"><g id="Design" stroke="none" stroke-width="1" fill="none" fill-rule="evenodd"><g id="XL" transform="translate(-855 -7122)" fill="#2FBEFF" fill-rule="nonzero"><g id="Group-33" transform="translate(0 6964)"><g id="Group-7-Copy" transform="translate(855 50)"><path d="M21.75 108H2.25C1.01 108 0 109.01 0 110.25v13.5c0 1.24 1.01 2.25 2.25 2.25h19.5c1.24 0 2.25-1.01 2.25-2.25v-13.5c0-1.24-1.01-2.25-2.25-2.25zm0 1.5a.74.74 0 01.287.058L12 118.258l-10.037-8.7a.747.747 0 01.287-.058h19.5zm0 15H2.25a.75.75 0 01-.75-.75v-12.607l10.009 8.674a.75.75 0 00.982 0l10.009-8.674v12.607a.75.75 0 01-.75.75z" id="icon-mail"/></g></g></g></g></svg>