<svg width="150" height="42" viewBox="0 0 150 42" fill="none" xmlns="http://www.w3.org/2000/svg">
<g clip-path="url(#clip0_16_18)">
<path fill-rule="evenodd" clip-rule="evenodd" d="M58.82 25.473C59.938 24.355 60.476 23.012 60.476 21.445C60.476 19.878 59.938 18.535 58.82 17.462C57.7 16.342 56.358 15.806 54.746 15.806C53.092 15.806 51.704 16.343 50.541 17.462C49.422 18.536 48.839 19.878 48.839 21.445C48.839 23.012 49.422 24.355 50.541 25.473C51.704 26.548 53.091 27.084 54.746 27.084C56.358 27.084 57.701 26.548 58.82 25.474V25.473ZM42.573 41.361V10.167H49.242V13.121C49.912 11.151 52.553 9.765 55.955 9.765C59.133 9.765 61.818 10.883 63.922 13.165C66.07 15.403 67.144 18.178 67.144 21.445C67.144 24.713 66.07 27.487 63.922 29.77C61.818 32.007 59.133 33.126 55.955 33.126C52.553 33.126 49.913 31.74 49.242 29.77V41.36L42.573 41.361ZM70.59 32.724V10.166H77.258V13.256C78.288 10.972 80.704 9.674 83.792 9.674C84.24 9.674 84.822 9.719 85.538 9.809V16.074C84.8011 15.9266 84.0515 15.8519 83.3 15.851C79.496 15.851 77.258 17.999 77.258 21.713V32.723L70.59 32.724ZM95.16 25.652C96.278 26.771 97.666 27.352 99.322 27.352C100.978 27.352 102.365 26.771 103.484 25.652C104.603 24.489 105.186 23.102 105.186 21.445C105.186 19.789 104.603 18.402 103.484 17.283C102.365 16.119 100.978 15.538 99.322 15.538C97.666 15.538 96.278 16.118 95.159 17.283C94.041 18.402 93.459 19.789 93.459 21.445C93.459 23.101 94.041 24.533 95.159 25.652H95.16ZM108.184 12.986C110.645 15.268 111.853 18.089 111.853 21.446C111.853 24.802 110.645 27.621 108.184 29.948C105.721 32.232 102.768 33.395 99.322 33.395C95.832 33.395 92.878 32.232 90.415 29.948C87.999 27.621 86.79 24.802 86.79 21.445C86.79 18.089 88 15.268 90.415 12.985C92.878 10.659 95.831 9.495 99.322 9.495C102.768 9.495 105.721 10.659 108.184 12.985M115.343 32.724V10.166H122.012V12.986C122.862 11.018 125.144 9.674 127.875 9.674C130.918 9.674 132.976 10.882 134.006 13.256C135.26 10.882 137.765 9.674 141.525 9.674C146.673 9.674 149.537 13.165 149.537 19.028V32.724H142.868V19.834C142.868 17.194 141.66 15.582 139.512 15.582C137.319 15.582 135.752 17.418 135.752 20.058V32.724H129.083V19.834C129.083 17.194 127.875 15.582 125.727 15.582C123.578 15.582 122.012 17.418 122.012 20.058V32.724H115.343Z" fill="white"/>
<path fill-rule="evenodd" clip-rule="evenodd" d="M0 33.05H33.05V0H0V33.05ZM7.574 25.475H25.475V7.574H7.574V25.475Z" fill="url(#paint0_linear_16_18)"/>
</g>
<defs>
<linearGradient id="paint0_linear_16_18" x1="0" y1="0" x2="33.049" y2="33.049" gradientUnits="userSpaceOnUse">
<stop offset="1" stop-color="#4854A2" />
<stop offset="1" stop-color="#772088"/>
</linearGradient>
<clipPath id="clip0_16_18">
<rect width="150" height="42" fill="white"/>
</clipPath>
</defs>
</svg>
