<svg version="1.0" xmlns="http://www.w3.org/2000/svg" width="300" height="300" viewBox="0 0 225 225"><path d="M103.7 83.7l-63.8 25.5.3 3.1c.3 3.2.3 3.2 17.3 8.7l16.9 5.6 6.2 19.4c3.4 10.7 6.7 20.2 7.3 21.2 2 3.2 5 1.9 12.9-5.5 4.2-3.9 8.7-8 9.8-9 2.2-1.8 2.4-1.7 20 11.2 18.4 13.5 21.6 15 23.4 10.9 1.6-3.6 25-104.7 25-108 0-4-4.8-8.8-8.7-8.7-1.5.1-31.5 11.6-66.6 25.6zm61.7-12.9c-1.1.9-17.6 15.6-36.6 32.6l-34.6 30.8-1.1 6.1c-.6 3.4-1.4 8.3-1.7 10.9-.4 2.7-1 4.8-1.3 4.8-1 0-9.1-30.4-8.3-31.2C82.9 123.7 166.4 69 167 69c.3.1-.4.8-1.6 1.8z"/></svg>