<?xml version="1.0" encoding="UTF-8"?>
<svg xmlns="http://www.w3.org/2000/svg" xmlns:xlink="http://www.w3.org/1999/xlink" width="px" height="px" viewBox="0 0 55 32" version="1.1">
<defs>
<clipPath id="clip1">
  <path d="M 0 0 L 55 0 L 55 31.753906 L 0 31.753906 Z M 0 0 "/>
</clipPath>
<linearGradient id="linear0" gradientUnits="userSpaceOnUse" x1="6.5" y1="60.759" x2="213.5" y2="60.759" >
<stop offset="0" style="stop-color:rgb(96.078431%,97.254902%,98.431373%);stop-opacity:1;"/>
<stop offset="1" style="stop-color:rgb(91.372549%,93.333333%,96.862745%);stop-opacity:1;"/>
</linearGradient>
<linearGradient id="linear1" gradientUnits="userSpaceOnUse" x1="55.727" y1="45.8941" x2="55.727" y2="64.2772" gradientTransform="matrix(0.25,0,0,0.25,0,0)">
<stop offset="0" style="stop-color:rgb(19.607843%,19.607843%,19.607843%);stop-opacity:1;"/>
<stop offset="1" style="stop-color:rgb(0%,0%,0%);stop-opacity:1;"/>
</linearGradient>
<linearGradient id="linear2" gradientUnits="userSpaceOnUse" x1="73.7423" y1="45.8941" x2="73.7423" y2="64.2773" gradientTransform="matrix(0.25,0,0,0.25,0,0)">
<stop offset="0" style="stop-color:rgb(19.607843%,19.607843%,19.607843%);stop-opacity:1;"/>
<stop offset="1" style="stop-color:rgb(0%,0%,0%);stop-opacity:1;"/>
</linearGradient>
<linearGradient id="linear3" gradientUnits="userSpaceOnUse" x1="91.7576" y1="45.8941" x2="91.7576" y2="64.2772" gradientTransform="matrix(0.25,0,0,0.25,0,0)">
<stop offset="0" style="stop-color:rgb(19.607843%,19.607843%,19.607843%);stop-opacity:1;"/>
<stop offset="1" style="stop-color:rgb(0%,0%,0%);stop-opacity:1;"/>
</linearGradient>
<linearGradient id="linear4" gradientUnits="userSpaceOnUse" x1="109.773" y1="45.8942" x2="109.773" y2="64.2773" gradientTransform="matrix(0.25,0,0,0.25,0,0)">
<stop offset="0" style="stop-color:rgb(19.607843%,19.607843%,19.607843%);stop-opacity:1;"/>
<stop offset="1" style="stop-color:rgb(0%,0%,0%);stop-opacity:1;"/>
</linearGradient>
<linearGradient id="linear5" gradientUnits="userSpaceOnUse" x1="130.04" y1="45.8941" x2="130.04" y2="64.2772" gradientTransform="matrix(0.25,0,0,0.25,0,0)">
<stop offset="0" style="stop-color:rgb(19.607843%,19.607843%,19.607843%);stop-opacity:1;"/>
<stop offset="1" style="stop-color:rgb(0%,0%,0%);stop-opacity:1;"/>
</linearGradient>
<linearGradient id="linear6" gradientUnits="userSpaceOnUse" x1="148.055" y1="45.8941" x2="148.055" y2="64.2772" gradientTransform="matrix(0.25,0,0,0.25,0,0)">
<stop offset="0" style="stop-color:rgb(19.607843%,19.607843%,19.607843%);stop-opacity:1;"/>
<stop offset="1" style="stop-color:rgb(0%,0%,0%);stop-opacity:1;"/>
</linearGradient>
<linearGradient id="linear7" gradientUnits="userSpaceOnUse" x1="166.071" y1="45.8941" x2="166.071" y2="64.2773" gradientTransform="matrix(0.25,0,0,0.25,0,0)">
<stop offset="0" style="stop-color:rgb(19.607843%,19.607843%,19.607843%);stop-opacity:1;"/>
<stop offset="1" style="stop-color:rgb(0%,0%,0%);stop-opacity:1;"/>
</linearGradient>
<linearGradient id="linear8" gradientUnits="userSpaceOnUse" x1="188.027" y1="45.8942" x2="188.027" y2="64.2773" gradientTransform="matrix(0.25,0,0,0.25,0,0)">
<stop offset="0" style="stop-color:rgb(19.607843%,19.607843%,19.607843%);stop-opacity:1;"/>
<stop offset="1" style="stop-color:rgb(0%,0%,0%);stop-opacity:1;"/>
</linearGradient>
<linearGradient id="linear9" gradientUnits="userSpaceOnUse" x1="30.8142" y1="40.4532" x2="30.8142" y2="70.016" gradientTransform="matrix(0.25,0,0,0.25,0,0)">
<stop offset="0" style="stop-color:rgb(100%,79.607843%,19.607843%);stop-opacity:1;"/>
<stop offset="1" style="stop-color:rgb(80.392157%,60%,0%);stop-opacity:1;"/>
</linearGradient>
</defs>
<g id="surface1">
<g clip-path="url(#clip1)" clip-rule="nonzero">
<path style=" stroke:none;fill-rule:nonzero;fill:rgb(100%,100%,100%);fill-opacity:1;" d="M 52.921875 27.363281 L 28.300781 31.683594 C 27.769531 31.777344 27.230469 31.777344 26.699219 31.683594 L 2.078125 27.363281 C 1.496094 27.261719 0.96875 26.957031 0.589844 26.503906 C 0.207031 26.054688 0 25.480469 0 24.890625 L 0 0 L 55 0 L 55 24.890625 C 55 25.480469 54.792969 26.054688 54.410156 26.503906 C 54.03125 26.957031 53.503906 27.261719 52.921875 27.363281 Z M 52.921875 27.363281 "/>
<path style="fill:none;stroke-width:1;stroke-linecap:butt;stroke-linejoin:miter;stroke:url(#linear0);stroke-miterlimit:10;" d="M 213 1 L 213 92.5625 C 213 97.4375 209.71875 101.609375 205.21875 102.453125 L 113 119.734375 C 111.015625 120.109375 108.984375 120.109375 107 119.734375 L 14.78125 102.453125 C 10.28125 101.609375 7 97.4375 7 92.5625 L 7 1 " transform="matrix(0.25,0,0,0.25,0,0)"/>
</g>
<path style=" stroke:none;fill-rule:nonzero;fill:url(#linear1);" d="M 13.496094 16.023438 L 13.496094 12.203125 L 11.738281 12.203125 L 11.738281 11.527344 L 16.105469 11.527344 L 16.105469 12.203125 L 14.34375 12.203125 L 14.34375 16.023438 Z M 13.496094 16.023438 "/>
<path style=" stroke:none;fill-rule:nonzero;fill:url(#linear2);" d="M 16.425781 12.292969 C 16.425781 12.152344 16.453125 11.996094 16.453125 11.996094 C 16.476562 11.84375 16.613281 11.707031 16.613281 11.707031 C 16.6875 11.636719 16.777344 11.585938 16.875 11.558594 C 17.015625 11.527344 17.152344 11.527344 17.152344 11.527344 L 19.285156 11.527344 C 19.402344 11.527344 19.53125 11.535156 19.53125 11.535156 C 19.617188 11.539062 19.703125 11.558594 19.789062 11.585938 C 19.917969 11.628906 20.03125 11.707031 20.03125 11.707031 C 20.148438 11.785156 20.25 11.9375 20.25 11.9375 C 20.351562 12.085938 20.414062 12.25 20.445312 12.425781 C 20.476562 12.683594 20.476562 12.929688 20.476562 12.929688 C 20.476562 13.171875 20.449219 13.429688 20.449219 13.429688 C 20.425781 13.6875 20.28125 13.941406 20.28125 13.941406 C 20.238281 14.027344 20.171875 14.105469 20.171875 14.105469 C 20.109375 14.179688 20.011719 14.25 20.011719 14.25 C 19.917969 14.320312 19.769531 14.359375 19.769531 14.359375 C 19.621094 14.398438 19.433594 14.40625 19.433594 14.40625 L 18.855469 14.40625 L 18.855469 14.4375 L 20.566406 16.023438 L 19.5 16.023438 L 18.019531 14.566406 C 17.949219 14.496094 17.878906 14.394531 17.878906 14.394531 C 17.808594 14.289062 17.808594 14.1875 17.808594 14.1875 L 17.808594 14.085938 C 17.808594 13.949219 17.90625 13.867188 17.90625 13.867188 C 18 13.78125 18.1875 13.777344 18.1875 13.777344 L 19.035156 13.777344 C 19.144531 13.777344 19.273438 13.742188 19.273438 13.742188 C 19.402344 13.710938 19.5 13.578125 19.5 13.578125 C 19.53125 13.523438 19.550781 13.441406 19.550781 13.441406 C 19.570312 13.359375 19.582031 13.273438 19.582031 13.273438 C 19.59375 13.191406 19.59375 13.101562 19.59375 13.101562 C 19.59375 13.011719 19.601562 12.960938 19.601562 12.960938 C 19.601562 12.691406 19.554688 12.546875 19.554688 12.546875 C 19.511719 12.40625 19.441406 12.335938 19.441406 12.335938 C 19.339844 12.234375 19.203125 12.222656 19.203125 12.222656 C 19.066406 12.207031 18.964844 12.203125 18.964844 12.203125 L 17.589844 12.203125 C 17.519531 12.203125 17.46875 12.207031 17.46875 12.207031 C 17.414062 12.214844 17.363281 12.273438 17.363281 12.273438 C 17.292969 12.332031 17.289062 12.386719 17.289062 12.386719 C 17.28125 12.445312 17.273438 12.523438 17.273438 12.523438 L 17.273438 16.027344 L 16.425781 16.027344 Z M 16.425781 12.292969 "/>
<path style=" stroke:none;fill-rule:nonzero;fill:url(#linear3);" d="M 21.824219 16.023438 C 21.679688 16.023438 21.550781 16.011719 21.550781 16.011719 C 21.421875 16 21.3125 15.882812 21.3125 15.882812 C 21.195312 15.773438 21.171875 15.632812 21.171875 15.632812 C 21.144531 15.492188 21.144531 15.355469 21.144531 15.355469 L 21.144531 12.167969 C 21.144531 12.035156 21.183594 11.914062 21.183594 11.914062 C 21.222656 11.789062 21.296875 11.699219 21.296875 11.699219 C 21.40625 11.578125 21.554688 11.554688 21.554688 11.554688 C 21.703125 11.527344 21.839844 11.527344 21.839844 11.527344 L 24.726562 11.527344 L 24.726562 12.203125 L 22.296875 12.203125 C 22.238281 12.203125 22.179688 12.207031 22.179688 12.207031 C 22.121094 12.214844 22.0625 12.265625 22.0625 12.265625 C 22.011719 12.316406 22.007812 12.375 22.007812 12.375 L 21.992188 12.484375 L 21.992188 13.390625 L 24.660156 13.390625 L 24.660156 14.066406 L 21.992188 14.066406 L 21.992188 15.121094 C 21.992188 15.242188 22.058594 15.292969 22.058594 15.292969 C 22.097656 15.332031 22.167969 15.335938 22.167969 15.335938 C 22.238281 15.34375 22.347656 15.351562 22.347656 15.351562 L 24.75 15.351562 L 24.75 16.023438 Z M 21.824219 16.023438 "/>
<path style=" stroke:none;fill-rule:nonzero;fill:url(#linear4);" d="M 29.636719 15.441406 C 29.636719 15.78125 29.445312 15.929688 29.445312 15.929688 C 29.25 16.078125 28.96875 16.078125 28.96875 16.078125 C 28.761719 16.078125 28.574219 16.007812 28.574219 16.007812 C 28.390625 15.933594 28.242188 15.699219 28.242188 15.699219 L 26.34375 12.703125 C 26.324219 12.671875 26.300781 12.640625 26.273438 12.613281 C 26.253906 12.59375 26.242188 12.59375 26.242188 12.59375 C 26.214844 12.59375 26.183594 12.621094 26.183594 12.621094 C 26.152344 12.644531 26.152344 12.722656 26.152344 12.722656 L 26.152344 16.023438 L 25.328125 16.023438 L 25.328125 12.085938 C 25.328125 11.796875 25.507812 11.636719 25.507812 11.636719 C 25.691406 11.476562 26.015625 11.476562 26.015625 11.476562 C 26.320312 11.476562 26.480469 11.578125 26.480469 11.578125 C 26.640625 11.679688 26.730469 11.828125 26.730469 11.828125 L 28.640625 14.84375 C 28.664062 14.875 28.679688 14.914062 28.679688 14.914062 C 28.691406 14.953125 28.742188 14.953125 28.742188 14.953125 C 28.792969 14.953125 28.800781 14.914062 28.800781 14.914062 C 28.808594 14.875 28.8125 14.84375 28.8125 14.84375 L 28.8125 11.527344 L 29.636719 11.527344 Z M 29.636719 15.441406 "/>
<path style=" stroke:none;fill-rule:nonzero;fill:url(#linear5);" d="M 31.257812 15.042969 L 31.257812 15.171875 C 31.257812 15.226562 31.316406 15.285156 31.316406 15.285156 C 31.359375 15.339844 31.417969 15.34375 31.417969 15.34375 C 31.476562 15.351562 31.53125 15.351562 31.53125 15.351562 L 32.511719 15.351562 C 32.863281 15.351562 33.09375 15.261719 33.09375 15.261719 C 33.328125 15.171875 33.480469 14.933594 33.480469 14.933594 C 33.566406 14.804688 33.636719 14.523438 33.636719 14.523438 C 33.707031 14.238281 33.707031 13.660156 33.707031 13.660156 C 33.707031 13.519531 33.699219 13.367188 33.699219 13.367188 C 33.695312 13.261719 33.679688 13.164062 33.65625 13.0625 C 33.617188 12.914062 33.558594 12.78125 33.558594 12.78125 C 33.5 12.644531 33.390625 12.53125 33.390625 12.53125 C 33.328125 12.464844 33.257812 12.410156 33.179688 12.363281 C 33.0625 12.296875 32.929688 12.265625 32.929688 12.265625 C 32.792969 12.234375 32.671875 12.214844 32.671875 12.214844 C 32.546875 12.195312 32.425781 12.203125 32.425781 12.203125 L 31.546875 12.203125 C 31.507812 12.203125 31.449219 12.207031 31.449219 12.207031 C 31.390625 12.214844 31.347656 12.246094 31.347656 12.246094 C 31.308594 12.28125 31.28125 12.335938 31.28125 12.335938 C 31.257812 12.394531 31.257812 12.472656 31.257812 12.472656 Z M 31.097656 16.023438 C 30.84375 16.023438 30.734375 15.972656 30.734375 15.972656 C 30.625 15.921875 30.59375 15.902344 30.59375 15.902344 C 30.53125 15.851562 30.472656 15.75 30.472656 15.75 C 30.414062 15.644531 30.40625 15.453125 30.40625 15.453125 L 30.40625 12.246094 C 30.40625 12.117188 30.425781 11.984375 30.425781 11.984375 C 30.445312 11.847656 30.5625 11.71875 30.5625 11.71875 C 30.613281 11.667969 30.722656 11.597656 30.722656 11.597656 C 30.832031 11.527344 31.042969 11.527344 31.042969 11.527344 L 32.804688 11.527344 C 33.273438 11.527344 33.597656 11.679688 33.597656 11.679688 C 33.792969 11.777344 33.972656 11.90625 34.125 12.0625 C 34.226562 12.175781 34.308594 12.304688 34.375 12.445312 C 34.464844 12.652344 34.515625 12.871094 34.515625 12.871094 C 34.566406 13.089844 34.566406 13.308594 34.566406 13.308594 C 34.566406 13.527344 34.582031 13.726562 34.582031 13.726562 C 34.582031 13.910156 34.574219 14.136719 34.574219 14.136719 C 34.566406 14.359375 34.523438 14.597656 34.523438 14.597656 C 34.492188 14.753906 34.449219 14.910156 34.398438 15.0625 C 34.324219 15.285156 34.183594 15.472656 34.183594 15.472656 C 34.109375 15.5625 34.007812 15.660156 34.007812 15.660156 C 33.90625 15.753906 33.75 15.839844 33.75 15.839844 C 33.597656 15.921875 33.390625 15.972656 33.390625 15.972656 C 33.183594 16.027344 32.921875 16.027344 32.921875 16.027344 L 31.097656 16.027344 Z M 31.097656 16.023438 "/>
<path style=" stroke:none;fill-rule:nonzero;fill:url(#linear6);" d="M 36.984375 16.023438 C 36.867188 16.023438 36.753906 16.019531 36.636719 16.011719 C 36.449219 16 36.265625 15.941406 36.265625 15.941406 C 36.078125 15.882812 35.890625 15.78125 35.890625 15.78125 C 35.707031 15.679688 35.550781 15.5 35.550781 15.5 C 35.390625 15.316406 35.300781 15.105469 35.300781 15.105469 C 35.242188 14.96875 35.199219 14.824219 35.164062 14.675781 C 35.136719 14.535156 35.117188 14.390625 35.109375 14.246094 C 35.09375 14.035156 35.09375 13.839844 35.09375 13.839844 C 35.09375 13.601562 35.109375 13.363281 35.109375 13.363281 C 35.121094 13.128906 35.171875 12.894531 35.171875 12.894531 C 35.222656 12.664062 35.300781 12.464844 35.300781 12.464844 C 35.378906 12.265625 35.53125 12.09375 35.53125 12.09375 C 35.699219 11.894531 35.90625 11.785156 35.90625 11.785156 C 36.109375 11.675781 36.316406 11.609375 36.316406 11.609375 C 36.523438 11.546875 36.703125 11.539062 36.703125 11.539062 C 36.882812 11.535156 37.003906 11.527344 37.003906 11.527344 L 38.808594 11.527344 L 38.808594 12.203125 L 37.402344 12.203125 C 37.214844 12.203125 37.042969 12.207031 37.042969 12.207031 C 36.933594 12.214844 36.824219 12.234375 36.722656 12.265625 C 36.625 12.300781 36.53125 12.34375 36.445312 12.394531 C 36.316406 12.472656 36.21875 12.621094 36.21875 12.621094 C 36.117188 12.765625 36.046875 13.042969 36.046875 13.042969 C 35.976562 13.320312 35.96875 13.828125 35.96875 13.828125 C 35.96875 14.078125 35.988281 14.257812 35.988281 14.257812 C 36.007812 14.4375 36.039062 14.574219 36.039062 14.574219 C 36.070312 14.707031 36.109375 14.785156 36.109375 14.785156 C 36.148438 14.863281 36.179688 14.921875 36.179688 14.921875 C 36.355469 15.183594 36.65625 15.265625 36.65625 15.265625 C 36.960938 15.351562 37.359375 15.351562 37.359375 15.351562 L 38.882812 15.351562 L 38.882812 16.027344 Z M 36.984375 16.023438 "/>
<path style=" stroke:none;fill-rule:nonzero;fill:url(#linear7);" d="M 39.460938 12.292969 C 39.460938 12.152344 39.484375 11.996094 39.484375 11.996094 C 39.511719 11.84375 39.644531 11.707031 39.644531 11.707031 C 39.71875 11.636719 39.8125 11.585938 39.910156 11.558594 C 40.050781 11.527344 40.1875 11.527344 40.1875 11.527344 L 42.320312 11.527344 C 42.4375 11.527344 42.566406 11.535156 42.566406 11.535156 C 42.652344 11.539062 42.738281 11.558594 42.820312 11.585938 C 42.949219 11.628906 43.066406 11.707031 43.066406 11.707031 C 43.183594 11.785156 43.285156 11.9375 43.285156 11.9375 C 43.382812 12.085938 43.449219 12.25 43.476562 12.425781 C 43.507812 12.683594 43.507812 12.929688 43.507812 12.929688 C 43.507812 13.171875 43.484375 13.429688 43.484375 13.429688 C 43.457031 13.6875 43.316406 13.941406 43.316406 13.941406 C 43.273438 14.027344 43.207031 14.105469 43.207031 14.105469 C 43.144531 14.179688 43.046875 14.25 43.046875 14.25 C 42.949219 14.320312 42.800781 14.359375 42.800781 14.359375 C 42.65625 14.398438 42.46875 14.40625 42.46875 14.40625 L 41.890625 14.40625 L 41.890625 14.4375 L 43.597656 16.023438 L 42.53125 16.023438 L 41.054688 14.566406 C 40.984375 14.496094 40.914062 14.394531 40.914062 14.394531 C 40.839844 14.289062 40.839844 14.1875 40.839844 14.1875 L 40.839844 14.085938 C 40.839844 13.949219 40.9375 13.867188 40.9375 13.867188 C 41.035156 13.78125 41.222656 13.777344 41.222656 13.777344 L 42.070312 13.777344 C 42.179688 13.777344 42.308594 13.742188 42.308594 13.742188 C 42.433594 13.710938 42.53125 13.578125 42.53125 13.578125 C 42.5625 13.523438 42.582031 13.441406 42.582031 13.441406 C 42.601562 13.359375 42.617188 13.273438 42.617188 13.273438 C 42.628906 13.191406 42.628906 13.101562 42.628906 13.101562 C 42.628906 13.011719 42.636719 12.960938 42.636719 12.960938 C 42.636719 12.691406 42.589844 12.546875 42.589844 12.546875 C 42.546875 12.40625 42.472656 12.335938 42.472656 12.335938 C 42.371094 12.234375 42.238281 12.222656 42.238281 12.222656 C 42.101562 12.207031 42 12.203125 42 12.203125 L 40.621094 12.203125 C 40.550781 12.203125 40.5 12.207031 40.5 12.207031 C 40.449219 12.214844 40.398438 12.273438 40.398438 12.273438 C 40.328125 12.332031 40.320312 12.386719 40.320312 12.386719 C 40.3125 12.445312 40.308594 12.523438 40.308594 12.523438 L 40.308594 16.027344 L 39.460938 16.027344 Z M 39.460938 12.292969 "/>
<path style=" stroke:none;fill-rule:nonzero;fill:url(#linear8);" d="M 47.625 15.535156 C 47.574219 15.664062 47.527344 15.761719 47.527344 15.761719 C 47.484375 15.859375 47.40625 15.933594 47.40625 15.933594 C 47.355469 15.984375 47.296875 16.019531 47.230469 16.039062 C 47.136719 16.0625 46.980469 16.078125 46.980469 16.078125 C 46.820312 16.078125 46.71875 16.03125 46.71875 16.03125 C 46.652344 16.003906 46.589844 15.964844 46.539062 15.917969 C 46.488281 15.867188 46.449219 15.808594 46.421875 15.742188 C 46.382812 15.640625 46.339844 15.535156 46.339844 15.535156 L 45.1875 12.535156 C 45.175781 12.503906 45.160156 12.472656 45.140625 12.445312 C 45.109375 12.394531 45.078125 12.386719 45.078125 12.386719 C 45.027344 12.386719 45.019531 12.445312 45.019531 12.445312 C 45.015625 12.503906 45.007812 12.523438 45.007812 12.523438 L 45.027344 16.023438 L 44.179688 16.023438 L 44.179688 12.066406 C 44.179688 11.847656 44.273438 11.734375 44.273438 11.734375 C 44.335938 11.660156 44.410156 11.597656 44.492188 11.554688 C 44.617188 11.488281 44.730469 11.488281 44.730469 11.488281 C 44.847656 11.488281 44.90625 11.476562 44.90625 11.476562 C 45.097656 11.476562 45.226562 11.519531 45.226562 11.519531 C 45.355469 11.566406 45.445312 11.644531 45.445312 11.644531 C 45.535156 11.71875 45.59375 11.828125 45.59375 11.828125 C 45.648438 11.9375 45.695312 12.054688 45.695312 12.054688 L 46.859375 15.054688 C 46.890625 15.125 46.917969 15.171875 46.917969 15.171875 C 46.941406 15.214844 46.980469 15.222656 46.980469 15.222656 C 47.011719 15.222656 47.039062 15.175781 47.039062 15.175781 C 47.0625 15.132812 47.101562 15.054688 47.101562 15.054688 L 48.265625 12.054688 C 48.335938 11.863281 48.421875 11.753906 48.421875 11.753906 C 48.503906 11.644531 48.613281 11.578125 48.613281 11.578125 C 48.722656 11.515625 48.824219 11.496094 48.824219 11.496094 C 48.929688 11.476562 49.058594 11.476562 49.058594 11.476562 C 49.371094 11.476562 49.578125 11.617188 49.578125 11.617188 C 49.785156 11.757812 49.785156 12.066406 49.785156 12.066406 L 49.785156 16.027344 L 48.933594 16.027344 L 48.960938 12.523438 C 48.960938 12.433594 48.933594 12.414062 48.933594 12.414062 C 48.917969 12.402344 48.902344 12.394531 48.882812 12.386719 C 48.851562 12.386719 48.820312 12.441406 48.820312 12.441406 C 48.785156 12.492188 48.773438 12.535156 48.773438 12.535156 Z M 47.625 15.535156 "/>
<path style=" stroke:none;fill-rule:nonzero;fill:url(#linear9);" d="M 9.5625 12.691406 L 7.339844 12.691406 L 7.339844 11.949219 L 9.5625 11.949219 Z M 9.5625 14.171875 L 7.339844 14.171875 L 7.339844 13.429688 L 9.5625 13.429688 Z M 9.5625 15.648438 L 7.339844 15.648438 L 7.339844 14.910156 L 9.5625 14.910156 Z M 6.601562 12.691406 L 5.859375 12.691406 L 5.859375 11.949219 L 6.601562 11.949219 Z M 6.601562 14.171875 L 5.859375 14.171875 L 5.859375 13.429688 L 6.601562 13.429688 Z M 6.601562 15.648438 L 5.859375 15.648438 L 5.859375 14.910156 L 6.601562 14.910156 Z M 9.929688 10.101562 L 5.492188 10.101562 C 5.292969 10.101562 5.105469 10.179688 4.96875 10.320312 C 4.828125 10.457031 4.75 10.644531 4.75 10.839844 L 4.75 16.761719 C 4.75 16.957031 4.828125 17.144531 4.96875 17.28125 C 5.105469 17.421875 5.292969 17.5 5.492188 17.5 L 9.929688 17.5 C 10.128906 17.5 10.316406 17.421875 10.453125 17.28125 C 10.59375 17.144531 10.671875 16.957031 10.671875 16.761719 L 10.671875 10.839844 C 10.671875 10.644531 10.59375 10.457031 10.453125 10.316406 C 10.316406 10.179688 10.128906 10.101562 9.929688 10.101562 Z M 9.929688 10.101562 "/>
</g>
</svg>
