<svg width="390" height="105" fill="none" xmlns="http://www.w3.org/2000/svg">
    <path
        d="M68.54 59.9l-34.53-7.82A19.1 19.1 0 1148.4 49.6l-.01.01a.48.48 0 00-.2.4c0 .22.14.4.36.46l15.37 3.47c.36.08.74-.06.96-.35A33.42 33.42 0 0040.22.06L38.8 0A38.2 38.2 0 006.92 60.13l30.72 43.89c.14.17.34.3.59.3.24 0 .44-.13.58-.3l30.17-43.03c.08-.1.12-.26.12-.4a.7.7 0 00-.56-.7z"
        fill="#FEC524" />
    <!-- //#FEC524 -->
    <path
        d="M98.1 20.56c.37 0 .61.12.73.36l10.24 17.49h.5l8.72-17.24c.18-.44.55-.61 1.04-.61h6.25c.56 0 .86.55.61.97l-18.04 31.9c-.19.37-.55.56-1.04.56h-6.13c-.68 0-.74-.43-.5-.92l4.85-8.29-14.46-23.44c-.24-.43-.07-.8.37-.8l6.86.02zM136.98 20.56c.55 0 .85.3.85.85v13.12l13.81-13.49c.37-.3.92-.48 1.6-.48h7.49c.56 0 .73.48.31.92L146.36 35.2l15.59 17.86c.43.43.19.92-.37.92h-7.36c-.68 0-1.17-.2-1.53-.61L141 39.6l-3.17 2.94v10.58c0 .56-.31.86-.85.86h-5.4c-.56 0-.86-.31-.86-.86V21.41c0-.56.31-.85.86-.85h5.4zM182.28 38.34c3.75 0 5.89-2.33 5.89-5.59 0-3.19-2.14-5.47-5.89-5.47h-8.9v11.04h8.9v.02zm0-17.78c7.42 0 13.01 5.33 13.01 12.2 0 7.12-5.59 12.33-13 12.33h-8.9v8.03c0 .56-.32.86-.86.86h-5.4c-.56 0-.85-.31-.85-.86V21.41c0-.56.3-.85.85-.85h15.15zM228.82 20.56c.56 0 .86.3.86.85v31.71c0 .56-.31.86-.86.86h-5.4c-.54 0-.85-.31-.85-.86v-25.9h-14.84v25.9c0 .56-.31.86-.85.86h-5.4c-.56 0-.86-.31-.86-.86V21.41c0-.56.31-.85.86-.85h27.34zM243.19 37.3c0 6.07 4.28 10.48 10.43 10.48 6.08 0 10.36-4.42 10.36-10.49 0-6.2-4.3-10.55-10.36-10.55-6.13 0-10.43 4.35-10.43 10.55zm10.43-17.25c9.63 0 17.55 7.42 17.55 17.24 0 9.88-7.92 17.18-17.55 17.18-9.7 0-17.6-7.3-17.6-17.18 0-9.8 7.91-17.24 17.6-17.24zM295 47.3V21.4c0-.56.3-.85.85-.85h5.27c.56 0 .86.3.86.85v25.9h10.48V21.4c0-.56.31-.85.86-.85h5.27c.56 0 .86.3.86.85v31.71c0 .56-.31.86-.86.86h-40.24a.83.83 0 01-.86-.86V21.41c0-.56.31-.85.86-.85h5.27c.56 0 .86.3.86.85v25.9h10.51M353.56 20.56c.55 0 .86.3.86.85v5.03c0 .56-.31.86-.86.86H342.9v25.82c0 .56-.31.86-.86.86h-5.4c-.55 0-.85-.31-.85-.86V27.3h-10.67c-.56 0-.86-.32-.86-.86v-5.03c0-.56.31-.85.86-.85h28.45zM365.7 40.92h11.64l-5.4-13.75h-.67l-5.58 13.75zm14.11 6.44h-16.68l-2.34 5.89c-.19.48-.55.73-1.04.73h-6.08c-.6 0-.8-.31-.6-.86l14.47-32.08c.12-.3.36-.48.8-.48h7c.43 0 .67.19.8.48L389.94 53c.2.49-.12.98-.67.98h-5.84c-.6 0-1.04-.31-1.29-.86l-2.33-5.76z"
        fill="#282A28" />
    <!-- #2C2E2C -->
    <path
        d="M95.6 82.65V68.33h9.4v1.65h-7.52v12.67h-1.89zM109.64 75.47c0 3.58 1.96 5.88 5 5.88 3 0 4.95-2.33 4.95-5.88s-1.96-5.84-5-5.84c-3.37 0-4.95 2.78-4.95 5.84zm11.85-.1c0 4.2-2.32 7.62-6.87 7.62-4.58 0-6.86-3.5-6.86-7.66 0-4.46 2.67-7.34 6.83-7.34 4.45 0 6.9 3.12 6.9 7.38zM136.3 82.65h-1.89V69.98h-5.29l-.28 8.06c-.1 2.88-1.16 4.91-3.33 4.91-.4 0-1-.13-1.37-.28v-1.62c.26.17.8.2 1.04.2 1.03 0 1.77-.56 1.87-4.2l.26-8.72h8.99v14.32zM142.65 75.47c0 3.58 1.95 5.88 4.99 5.88 3 0 4.95-2.33 4.95-5.88s-1.95-5.84-5-5.84c-3.37 0-4.94 2.78-4.94 5.84zm11.84-.1c0 4.2-2.32 7.62-6.87 7.62-4.58 0-6.86-3.5-6.86-7.66 0-4.46 2.67-7.34 6.85-7.34 4.44 0 6.88 3.12 6.88 7.38zM160.8 81.05h3.78c1.91 0 3.78-.12 3.78-2.63 0-2.5-2.2-2.47-4.1-2.47h-3.46v5.1zm0-6.59h3.4c1.62 0 3.54-.12 3.54-2.26 0-2.16-1.67-2.26-3.36-2.26h-3.58v4.52zm4.26-6.13c2.37 0 4.57.95 4.57 3.58A3.2 3.2 0 01167.5 75c1.78.4 2.75 1.72 2.75 3.62 0 3.3-2.7 4.04-5.44 4.04h-5.9V68.33h6.14zM186.15 82.65h-1.9v-6.7h-7.57v6.7h-1.9V68.33h1.9v5.97h7.57v-5.97h1.9v14.32zM196.72 70.15l-2.49 6.62h4.91l-2.42-6.62zm6.7 12.5h-2.12l-1.59-4.38h-6.02l-1.63 4.38h-2.02l5.65-14.32h2.12l5.6 14.32zM226.75 82.65h-1.9V69.98h-7.57v12.67h-1.9V68.33h11.35l.02 14.32zM233.1 75.47c0 3.58 1.96 5.88 5 5.88 3 0 4.95-2.33 4.95-5.88s-1.95-5.84-4.99-5.84c-3.38 0-4.95 2.78-4.95 5.84zm11.85-.1c0 4.2-2.32 7.62-6.86 7.62-4.59 0-6.87-3.5-6.87-7.66 0-4.46 2.68-7.34 6.84-7.34 4.45 0 6.9 3.12 6.9 7.38zM249.4 68.33h1.9V81h6.36V68.33h1.89V81h6.36V68.33h1.9v14.32h-18.4V68.33zM283.34 69.98h-4.82v12.67h-1.88V69.98h-4.82v-1.65h11.52v1.65zM290.66 70.15l-2.46 6.62h4.9l-2.44-6.62zm6.7 12.5h-2.11l-1.59-4.38h-6.02L286 82.65H284l5.64-14.32h2.13l5.6 14.32zM314.94 74.08l6.29 8.56h-2.42l-5.2-7.28-2.37 2.25v5.03h-1.9V68.33h1.9v7.1l7.27-7.1H321l-6.06 5.75zM327.11 75.2h3.65c1.83 0 3.24-.5 3.24-2.62 0-2.3-1.62-2.62-3.5-2.62h-3.37v5.23h-.02zm4-6.87c2.74 0 4.78 1.14 4.78 4.12 0 3.25-2.09 4.33-4.88 4.33h-3.88v5.87h-1.89V68.33h5.87zM344.26 70.15l-2.48 6.62h4.9l-2.42-6.62zm6.7 12.5h-2.12l-1.58-4.38h-6.03l-1.62 4.38h-2.01l5.63-14.32h2.13l5.6 14.32zM358.65 67.1h-1.82v-2.03h1.82v2.04zm-1.87 15.55h-1.89V68.33h1.89v14.32zm-1.93-15.54h-1.8v-2.04h1.8v2.04zM373.37 82.65h-1.89v-6.7h-7.57v6.7h-1.88V68.33h1.88v5.97h7.57v-5.97h1.89v14.32zM378.58 68.33h1.88v12.13h.04l7.03-12.13h2.4v14.32h-1.88V70.5H388l-7.04 12.16h-2.37V68.33"
        fill="#617171" />
</svg>