<?xml version="1.0" encoding="utf-8"?><svg viewBox="0 0 1110 1110" xmlns="http://www.w3.org/2000/svg" xmlns:xlink="http://www.w3.org/1999/xlink"><style>:root>svg{display:none}:root>svg:target{display:block}</style><svg viewBox="0 0 11 7" id="arrow" xmlns="http://www.w3.org/2000/svg"><path fill="#fff" d="M5.198 6.373.124 1.235a.434.434 0 0 1 .001-.61.423.423 0 0 1 .603.002L5.5 5.459 10.272.627a.423.423 0 0 1 .603-.001.432.432 0 0 1 0 .609L5.803 6.373a.424.424 0 0 1-.604 0z"/></svg><svg viewBox="0 0 20 20" id="call" xmlns="http://www.w3.org/2000/svg"><path d="M14.374 20a5.572 5.572 0 0 1-1.912-.342A20.385 20.385 0 0 1 5.06 14.94 20.384 20.384 0 0 1 .342 7.538a5.532 5.532 0 0 1-.283-2.72A5.663 5.663 0 0 1 2.975.667 5.57 5.57 0 0 1 5.64 0c.295 0 .55.206.611.494l.981 4.578a.625.625 0 0 1-.169.573L5.388 7.32a16.451 16.451 0 0 0 7.291 7.29l1.676-1.675a.625.625 0 0 1 .573-.17l4.578.982a.625.625 0 0 1 .494.61c0 .948-.224 1.845-.666 2.667a5.662 5.662 0 0 1-4.153 2.916c-.27.04-.539.059-.807.059Z" fill="#FFF" fill-rule="nonzero"/></svg><svg viewBox="0 0 48 48" id="crypto" xmlns="http://www.w3.org/2000/svg"><g fill="#2FBEFF" fill-rule="nonzero"><path d="M32.058 30.502c-1.137 0-2.062-.8-2.062-1.785 0-.984.925-1.785 2.062-1.785 1.137 0 2.063.8 2.063 1.785a.938.938 0 0 0 1.875 0c0-1.718-1.28-3.162-3-3.554v-.488a.938.938 0 0 0-1.875 0v.488c-1.72.392-3 1.836-3 3.554 0 2.018 1.766 3.66 3.937 3.66 1.137 0 2.063.801 2.063 1.785 0 .985-.926 1.786-2.063 1.786s-2.062-.801-2.062-1.785a.938.938 0 0 0-1.875 0c0 1.717 1.28 3.162 3 3.554v.405a.938.938 0 0 0 1.875 0v-.405c1.72-.392 3-1.837 3-3.554 0-2.019-1.767-3.66-3.938-3.66ZM42.326 24.926a12.215 12.215 0 0 0-4.99-4.416.937.937 0 1 0-.812 1.69 10.374 10.374 0 0 1 5.851 9.3c0 1.686-.416 3.359-1.202 4.837a.937.937 0 1 0 1.655.88A12.212 12.212 0 0 0 44.25 31.5c0-2.34-.665-4.613-1.924-6.574ZM33.532 19.313h-.063a.938.938 0 0 0 0 1.875h.059a.938.938 0 0 0 .004-1.875ZM27.6 40.8a10.375 10.375 0 0 1-5.85-9.3c0-1.686.416-3.359 1.202-4.837a.937.937 0 1 0-1.655-.88 12.212 12.212 0 0 0-1.422 5.717c0 2.34.665 4.613 1.924 6.574a12.216 12.216 0 0 0 4.99 4.416.938.938 0 0 0 .812-1.69ZM30.656 41.813h-.054a.937.937 0 1 0-.008 1.874h.062a.938.938 0 0 0 0-1.874Z"/><path d="M36.32 16.14a4.303 4.303 0 0 0-.417-.765h2.44a4.317 4.317 0 0 0 4.313-4.313 4.317 4.317 0 0 0-4.312-4.312h-7.508a4.287 4.287 0 0 0 .758-2.438A4.317 4.317 0 0 0 27.28 0H4.313A4.317 4.317 0 0 0 0 4.313a4.317 4.317 0 0 0 4.313 4.312h7.507a4.287 4.287 0 0 0-.758 2.438c0 .904.28 1.743.758 2.437H9.375a4.317 4.317 0 0 0-4.313 4.313c0 1.365.64 2.584 1.633 3.375a4.306 4.306 0 0 0 0 6.75 4.306 4.306 0 0 0 0 6.75 4.306 4.306 0 0 0-1.633 3.374 4.317 4.317 0 0 0 4.313 4.313h11.048a15.895 15.895 0 0 0 11.64 5.063C40.85 47.438 48 40.288 48 31.5c0-7.314-4.953-13.492-11.68-15.36Zm2.024-7.515a2.44 2.44 0 0 1 2.437 2.438 2.44 2.44 0 0 1-2.437 2.437H15.375a2.44 2.44 0 0 1-2.438-2.438 2.44 2.44 0 0 1 2.438-2.437h22.969ZM4.312 6.75a2.44 2.44 0 0 1-2.437-2.438 2.44 2.44 0 0 1 2.438-2.437H27.28a2.44 2.44 0 0 1 2.438 2.438A2.44 2.44 0 0 1 27.28 6.75H4.313Zm5.063 8.625h22.969c.377 0 .739.088 1.063.245a15.888 15.888 0 0 0-12.623 4.63H9.376a2.44 2.44 0 0 1-2.438-2.438 2.44 2.44 0 0 1 2.438-2.437Zm0 6.75h9.808A15.892 15.892 0 0 0 16.773 27H9.375a2.44 2.44 0 0 1-2.438-2.438 2.44 2.44 0 0 1 2.438-2.437Zm0 6.75h6.968a15.975 15.975 0 0 0-.058 4.875h-6.91a2.44 2.44 0 0 1-2.438-2.438 2.44 2.44 0 0 1 2.438-2.437Zm0 11.625a2.44 2.44 0 0 1-2.438-2.438 2.44 2.44 0 0 1 2.438-2.437h7.292a15.875 15.875 0 0 0 2.25 4.875H9.375Zm22.688 5.063C24.309 45.563 18 39.254 18 31.5c0-7.754 6.309-14.062 14.063-14.062 7.754 0 14.062 6.308 14.062 14.062s-6.308 14.063-14.062 14.063Z"/></g></svg><svg viewBox="0 0 1110 1110" id="decor1" xmlns="http://www.w3.org/2000/svg"><defs><linearGradient x1="16.48%" y1="12.776%" x2="16.48%" y2="86.975%" id="da"><stop stop-color="#2FBEFF" offset="0%"/><stop stop-color="#1B70B6" offset="100%"/></linearGradient></defs><circle fill="url(#da)" fill-rule="nonzero" cx="555" cy="555" r="555"/></svg><svg viewBox="0 0 672 602" id="decor2" xmlns="http://www.w3.org/2000/svg"><defs><linearGradient x1="55.629%" y1="4.218%" x2="43.133%" y2="100%" id="ec"><stop stop-color="#2FBEFF" offset="0%"/><stop stop-color="#1B70B6" offset="100%"/></linearGradient><path id="ea" d="M0 .939h672v600H0z"/></defs><g transform="translate(0 .06)" fill="none" fill-rule="evenodd"><mask id="eb" fill="#fff"><use xlink:href="#ea"/></mask><g mask="url(#eb)" fill="url(#ec)" fill-rule="nonzero"><path d="M176.724 17.817c47.213-6.66 92.664 5.755 125.108 28.465 32.52 22.755 52.075 55.73 68.94 88.542 16.746 32.845 84.583 226.465 98.901 241.263 14.318 14.799 366.783 89.919 79.942 199.146C301.373 669.761 297.36 328.479 254.1 327.774c-43.29-.824-85.904 14.062-127.335 3.472-41.463-10.71-81.668-46.853-97.423-93.648-15.755-46.795-6.984-104.197 21.986-145.76 28.97-41.564 78.063-67.33 125.395-74.02z"/></g></g></svg><svg viewBox="0 0 900 500" id="decor3" xmlns="http://www.w3.org/2000/svg"><defs><linearGradient id="fa" x1="775.12" x2="346.58" y1="-69.98" y2="586.86" gradientUnits="userSpaceOnUse"><stop offset="0" stop-color="#2fbeff"/><stop offset="1" stop-color="#1b70b6"/></linearGradient></defs><path fill="url(#fa)" d="M1076.287-61.147C1208.81 35.839 953.814 42.703 969.433 94.13c15.472 51.285 53.007 87.528 66.756 133.369 13.753 45.698 3.582 101.137-29.367 133.942-32.95 32.805-88.678 42.98-130.938 19.197-42.405-23.78-71.483-81.51-121.91-86.955-50.572-5.444-454.182 294.179-515.638 293.175-61.457-1.003-209.305-395.581-186.384-436.695 22.92-41.114 268.331-19.757 316.898-53.85 48.706-33.952 127.546 97.319 259.824 57.734 148.563-52.232-97.168-121.862 79.58-201.479 44.838-20.202 254.845-96.552 368.033-13.716z" transform="rotate(-164.991 541 250)"/></svg><svg viewBox="0 0 679 815" id="decor4" xmlns="http://www.w3.org/2000/svg"><defs><linearGradient x1="55.291%" y1="4.218%" x2="43.545%" y2="100%" id="ga"><stop stop-color="#2FBEFF" offset="0%"/><stop stop-color="#1B70B6" offset="100%"/></linearGradient></defs><rect fill="url(#ga)" fill-rule="nonzero" transform="rotate(29 339.5 407.5)" x="135" y="29" width="409" height="757" rx="64"/></svg><svg viewBox="0 0 410 636" id="decor5" xmlns="http://www.w3.org/2000/svg"><defs><linearGradient x1="68.124%" y1="30.974%" x2="27.887%" y2="70.779%" id="ha"><stop stop-color="#2FBEFF" offset="0%"/><stop stop-color="#1B70B6" offset="100%"/></linearGradient></defs><path transform="rotate(-90 205 318)" d="m-113 523 383.04-410L523 315.329z" fill="url(#ha)" fill-rule="nonzero"/></svg><svg viewBox="0 0 351 558" id="decor6" xmlns="http://www.w3.org/2000/svg"><defs><linearGradient id="ia" x1="280" x2="53.21" y1="120.51" y2="452.23" gradientUnits="userSpaceOnUse"><stop offset="0" stop-color="#2fbeff"/><stop offset="1" stop-color="#1b70b6"/></linearGradient></defs><path fill="url(#ia)" d="M-103.97 452.231 132.902 105.9l326.767 5.555z" transform="rotate(89.026 175 279)"/></svg><svg viewBox="0 0 375 331" id="decor7" xmlns="http://www.w3.org/2000/svg"><defs><linearGradient x1="68.124%" y1="14.761%" x2="27.887%" y2="88.486%" id="ja"><stop stop-color="#2FBEFF" offset="0%"/><stop stop-color="#1B70B6" offset="100%"/></linearGradient></defs><path d="M333.604.282H43.83L0 70.956l187.5 258.326L375 70.956z" transform="translate(0 .718)" fill="url(#ja)" fill-rule="nonzero"/></svg><svg viewBox="0 0 641 577" id="decor8" xmlns="http://www.w3.org/2000/svg"><defs><linearGradient x1="55.629%" y1="4.218%" x2="43.133%" y2="100%" id="ka"><stop stop-color="#2FBEFF" offset="0%"/><stop stop-color="#1B70B6" offset="100%"/></linearGradient></defs><path d="M569.31 109.294c29.374 37.558 41.348 83.127 37.902 122.58-3.446 39.54-22.225 72.963-42.21 103.974-20.071 30.926-153.832 186.484-159.489 206.283-5.657 19.799 105.52 362.603-132.494 168.805-205.985-167.72 87.567-341.837 66.548-379.653-20.932-37.903-55.13-67.364-66.674-108.54-11.457-41.262-.258-94.153 32.39-131.195 32.648-37.041 86.745-58.146 137.225-53.839 50.48 4.307 97.34 33.94 126.801 71.585z" transform="scale(-1 1) rotate(-60 -50.269 969.076)" fill="url(#ka)" fill-rule="nonzero"/></svg><svg viewBox="0 0 1082 500" id="decor9" xmlns="http://www.w3.org/2000/svg"><defs><linearGradient x1="68.124%" y1="31.02%" x2="27.887%" y2="70.729%" id="la"><stop stop-color="#2FBEFF" offset="0%"/><stop stop-color="#1B70B6" offset="100%"/></linearGradient></defs><path d="M1098.287 164.852c132.523 96.987-122.472 103.85-106.854 155.279 15.472 51.285 53.007 87.528 66.756 133.368 13.753 45.699 3.582 101.137-29.367 133.942-32.949 32.805-88.678 42.981-130.938 19.198-42.405-23.78-71.483-81.51-121.91-86.956-50.572-5.443-454.182 294.18-515.638 293.178C198.88 811.856 51.03 417.277 73.952 376.163c22.92-41.114 268.332-19.756 316.898-53.85 48.706-33.951 127.546 97.32 259.824 57.735 148.563-52.233-97.167-121.863 79.58-201.48 44.838-20.202 254.845-96.552 368.033-13.716z" transform="scale(1 -1) rotate(15 3260.784 -283.016)" fill="url(#la)" fill-rule="nonzero"/></svg><svg viewBox="0 0 38 35.28" id="facebook" xmlns="http://www.w3.org/2000/svg"><path data-name="Forma 1" class="mcls-2" d="M15.73 30.43h5.114V18.08h3.431s.322-1.99.479-4.17h-3.89v-2.84a1.206 1.206 0 0 1 1.109-.99h2.786V5.75h-3.79c-5.365 0-5.239 4.16-5.239 4.78v3.4h-2.489v4.15h2.489v12.35z"/></svg><svg viewBox="0 0 48 49" id="handshake" xmlns="http://www.w3.org/2000/svg"><g fill="#2FBEFF" fill-rule="nonzero"><path d="M23.832 6.1a.944.944 0 0 0 .945-.945V.945a.944.944 0 0 0-1.889 0v4.21c0 .522.423.944.944.944ZM46.911 32.436l-1.668-1.663a3.13 3.13 0 0 0-2.226-.92c-.54 0-1.056.135-1.515.386L38.36 27.1l.153-.152a3.277 3.277 0 0 0 0-4.627 3.241 3.241 0 0 0-1.643-.889c.085-.294.13-.603.13-.919 0-.877-.34-1.699-.958-2.313a3.241 3.241 0 0 0-1.643-.889c.085-.294.13-.603.13-.918 0-.877-.34-1.7-.958-2.315a3.256 3.256 0 0 0-1.642-.886 3.282 3.282 0 0 0-.827-3.236 3.278 3.278 0 0 0-2.666-.934l-6.228-1.18c-.95-.18-2.136-.299-2.885.384a1.705 1.705 0 0 0-.143.148 3.283 3.283 0 0 0-3.444.758 3.248 3.248 0 0 0-.957 2.314c0 .316.045.624.13.919a3.236 3.236 0 0 0-1.64.887 3.244 3.244 0 0 0-.96 2.312c0 .316.044.626.13.921a3.243 3.243 0 0 0-1.643.886 3.251 3.251 0 0 0-.958 2.316c0 .671.2 1.31.572 1.85a3.254 3.254 0 0 0-1.258.783 3.277 3.277 0 0 0 .001 4.63l.153.152-3.144 3.137a3.157 3.157 0 0 0-3.572.62L.921 32.521A3.125 3.125 0 0 0 0 34.748c0 .844.327 1.635.92 2.227l2.083 2.08a.944.944 0 1 0 1.335-1.335l-2.083-2.08a1.25 1.25 0 0 1-.367-.892c0-.338.13-.654.366-.89l1.67-1.664a1.264 1.264 0 0 1 1.54-.19.952.952 0 0 0 .39.335l9.57 9.557a.941.941 0 0 0 .456.46c.202.229.314.521.314.833 0 .338-.13.655-.367.891l-1.667 1.665c-.493.49-1.294.49-1.785.002l-2.083-2.083a.944.944 0 1 0-1.335 1.335l2.084 2.085c.614.61 1.42.916 2.225.916.807 0 1.613-.306 2.228-.917l1.668-1.667c.594-.593.92-1.384.92-2.227 0-.602-.167-1.176-.478-1.672l3.538-3.533.011-.012c.405-.419 1.533-.34 2.624-.265.775.054 1.64.114 2.484.017l3.874 3.87a3.134 3.134 0 0 0-.385 1.511c0 .843.327 1.633.92 2.226l1.67 1.667a3.129 3.129 0 0 0 2.226.919c.842 0 1.633-.327 2.226-.92l10.12-10.107c.593-.592.92-1.383.92-2.227 0-.843-.327-1.633-.92-2.227ZM21.856 9.697l4.095.775-2.451 2.45c-.38-.181-.9-.521-1.47-1.067-.78-.746-1.338-1.609-1.389-2.146v-.001a.825.825 0 0 1-.004-.093c.123-.03.451-.064 1.219.082Zm-4.787.77a1.393 1.393 0 0 1 1.762-.167c.306 1.284 1.401 2.448 1.894 2.92.366.349 1.538 1.397 2.72 1.685.16.23.248.503.248.791 0 .372-.143.72-.404.98-.26.26-.608.403-.98.403-.373 0-.72-.143-.982-.404v-.001l-4.258-4.25a1.372 1.372 0 0 1-.403-.979c0-.371.143-.719.403-.978Zm-2.467 4.12c.26-.26.607-.404.98-.404.371 0 .72.144.982.405l3.428 3.422c.54.54.54 1.42.002 1.96-.261.26-.61.403-.983.403s-.723-.143-.983-.402l-2.601-2.601-.013-.012-.813-.813a1.374 1.374 0 0 1-.405-.98c0-.37.144-.717.406-.978Zm-2.472 4.119c.26-.26.608-.403.981-.403.37 0 .716.141.974.396l2.61 2.608c.26.26.403.607.403.978s-.143.718-.404.978c-.26.26-.608.403-.98.403-.374 0-.723-.144-.983-.403l-.946-.944v-.001l-1.655-1.652a1.375 1.375 0 0 1-.404-.98c0-.371.143-.72.404-.98Zm-1.644 4.949c.26-.261.61-.405.982-.405s.721.144.982.404l.947.946c.26.26.404.607.404.978s-.143.718-.406.98c-.26.26-.607.403-.98.403-.372 0-.72-.143-.982-.405l-.119-.119-.004-.004-.005-.005-.819-.815a1.387 1.387 0 0 1 0-1.958Zm19.24 10.73a.944.944 0 0 0-1.335 0l-.84.838c-.798.798-2.244.698-3.643.6-1.519-.105-3.09-.214-4.106.83l-3.477 3.473-8.697-8.683 3.078-3.073a3.259 3.259 0 0 0 1.71.48c.877 0 1.7-.34 2.314-.956.619-.616.96-1.439.96-2.316l-.001-.024h.024c.877 0 1.699-.339 2.314-.953.619-.617.96-1.439.96-2.316l-.001-.024h.025a3.262 3.262 0 0 0 3.273-3.294h.025c.878 0 1.7-.34 2.316-.956a3.248 3.248 0 0 0 .956-2.315c0-.613-.166-1.199-.477-1.706l2.697-2.697a1.385 1.385 0 0 1 .792-.39c.417-.058.855.07 1.174.388.54.541.54 1.421.002 1.96l-.822.818-.008.008-.947.945a.944.944 0 1 0 1.335 1.336l.825-.824.125-.125a1.39 1.39 0 0 1 1.96.005c.26.259.403.606.403.977 0 .372-.144.719-.406.98l-.826.828-.946.942a.944.944 0 1 0 1.332 1.338l.95-.946c.26-.26.608-.404.98-.404.373 0 .721.144.983.406.26.259.404.606.404.977s-.144.719-.405.98l-1.648 1.647a.944.944 0 0 0 1.336 1.335l.807-.808.014-.012c.26-.26.608-.404.98-.404.373 0 .72.143.982.405.539.538.539 1.417 0 1.957l-.821.82h-.001v.001l-1.304 1.301a.944.944 0 0 0 1.335 1.336l.637-.636 3.054 3.05-8.696 8.686-3.115-3.112c.217-.14.425-.304.62-.5l.84-.838a.944.944 0 0 0 0-1.335Zm15.851 1.17-10.12 10.107a1.253 1.253 0 0 1-.891.366c-.339 0-.656-.13-.893-.367l-1.668-1.666a1.248 1.248 0 0 1-.367-.89c0-.337.13-.653.367-.89l10.12-10.106c.236-.237.553-.367.892-.367.338 0 .655.13.892.367l1.668 1.663c.237.237.367.553.367.891 0 .339-.13.655-.367.891ZM11.295 5.303a.941.941 0 0 0 1.336-.001.944.944 0 0 0-.002-1.335L9.19.533A.944.944 0 1 0 7.855 1.87l3.44 3.433ZM35.703 5.58a.941.941 0 0 0 .667-.277l3.438-3.434A.944.944 0 1 0 38.473.534l-3.438 3.433a.944.944 0 0 0 .668 1.612Z"/><path d="M5.805 40.613a.944.944 0 0 0 .012 1.335l.003.003a.942.942 0 0 0 1.334-.013.946.946 0 0 0-1.349-1.325ZM32.035 33.025a.945.945 0 1 0-.424-1.788l-.005.003a.944.944 0 0 0 .43 1.785Z"/></g></svg><svg version="1.0" viewBox="0 0 240 240" id="instagram" xmlns="http://www.w3.org/2000/svg"><path d="M63.2 1.1c-26 3-44.5 14.7-54 34C.9 52 0 60.5 0 120c0 59.5.9 68 9.2 84.9 5.7 11.5 14.4 20.2 25.9 25.9C52 239.1 60.5 240 120 240c59.5 0 68-.9 84.9-9.2 19.8-9.7 30.9-27.8 34.1-55.3 1.3-11.7 1.3-99.3 0-111-2.3-19.8-8.2-33.7-19-44.5-10.8-10.8-24.7-16.7-44.5-19C164.8-.2 73.8-.1 63.2 1.1zM172.8 23c28.5 2.9 41.3 15.7 44.2 44.2 1.3 13 1.3 92.6 0 105.6-2.9 28.5-15.7 41.3-44.2 44.2-13 1.3-92.6 1.3-105.6 0-28.5-2.9-41.3-15.7-44.2-44.2-1.3-13-1.3-92.6 0-105.6.6-5.5 2-12.7 3.1-15.9 5.6-16.6 18.8-26 39.5-28.2 11.6-1.2 95.5-1.3 107.2-.1z"/><path d="M179.5 42.1c-8.9 2.6-12.5 14.1-7 22.5 4.1 6.3 15.9 7.3 21.5 1.9 8.1-7.8 4.7-21.4-6.1-24.5-3.9-1.1-4.3-1.1-8.4.1zM107 59.6c-32.7 7-54.3 40.2-47.5 72.9 6.9 33.1 40 54.9 73 48 23.6-4.9 43.1-24.4 48-48 2.9-14 1.2-26.7-5.6-40.4-12.2-24.7-40.7-38.4-67.9-32.5zm22.5 21.9c11.7 3.1 20.9 10.5 26.1 21 11.7 24-2.6 51.7-29.4 56.7-20.8 3.9-41.3-11.1-45.4-33-2.8-15 5-31.9 18.3-39.9 9.9-5.9 19.9-7.5 30.4-4.8z"/></svg><svg viewBox="0 0 20 28" id="location" xmlns="http://www.w3.org/2000/svg"><g fill="#2FBEFF" fill-rule="nonzero"><path d="M9.6 0C4.307 0 0 4.307 0 9.6a9.58 9.58 0 0 0 1.433 5.048l7.62 12.28a.8.8 0 0 0 .68.379h.007a.8.8 0 0 0 .68-.39l7.426-12.399A9.589 9.589 0 0 0 19.2 9.6c0-5.293-4.307-9.6-9.6-9.6Zm6.873 13.697L9.72 24.97 2.793 13.805A7.99 7.99 0 0 1 1.589 9.6c0-4.411 3.6-8.01 8.011-8.01s8.005 3.599 8.005 8.01a7.993 7.993 0 0 1-1.132 4.097Z"/><path d="M9.6 4.8a4.805 4.805 0 0 0-4.8 4.8c0 2.63 2.118 4.8 4.8 4.8 2.715 0 4.8-2.2 4.8-4.8 0-2.647-2.153-4.8-4.8-4.8Zm0 8.01A3.213 3.213 0 0 1 6.39 9.6 3.222 3.222 0 0 1 9.6 6.39a3.217 3.217 0 0 1 3.205 3.21A3.207 3.207 0 0 1 9.6 12.81Z"/></g></svg><svg viewBox="0 0 24 18" id="mail" xmlns="http://www.w3.org/2000/svg"><path d="M21.75 0H2.25C1.01 0 0 1.01 0 2.25v13.5C0 16.99 1.01 18 2.25 18h19.5c1.24 0 2.25-1.01 2.25-2.25V2.25C24 1.01 22.99 0 21.75 0zm0 1.5a.74.74 0 0 1 .287.058L12 10.258l-10.037-8.7A.747.747 0 0 1 2.25 1.5h19.5zm0 15H2.25a.75.75 0 0 1-.75-.75V3.143l10.009 8.674a.75.75 0 0 0 .982 0L22.5 3.143V15.75a.75.75 0 0 1-.75.75z" fill="#2FBEFF" fill-rule="nonzero"/></svg><svg viewBox="0 0 48 48" id="rocket" xmlns="http://www.w3.org/2000/svg"><g fill="#2FBEFF" fill-rule="nonzero"><path d="M25.187 22.814a.938.938 0 1 0-1.326 1.325.938.938 0 0 0 1.326-1.325ZM37.119 10.882a4.686 4.686 0 0 0-6.63 0 4.694 4.694 0 0 0 0 6.629 4.694 4.694 0 0 0 6.63 0 4.685 4.685 0 0 0 0-6.63Zm-1.326 5.303a2.816 2.816 0 0 1-3.978 0 2.816 2.816 0 0 1 0-3.978 2.811 2.811 0 0 1 3.978 0 2.811 2.811 0 0 1 0 3.978Z"/><path d="M47.725.275A.934.934 0 0 0 47.03 0c-.212.007-5.26.21-11.259 2.33-4.807 1.698-8.814 4.128-11.91 7.224a35.675 35.675 0 0 0-2.014 2.193c-3.061-1.801-5.514-1.236-7.064-.407-3.57 1.911-5.78 7.099-5.78 10.81a.938.938 0 0 0 1.6.662c1.883-1.882 4.205-1.765 4.964-1.665l.328.328a32.975 32.975 0 0 0-1.548 4.554 2.654 2.654 0 0 0 .114 1.628 8.878 8.878 0 0 0-2.532 1.785c-2.413 2.413-2.903 8.295-2.923 8.544a.938.938 0 0 0 1.008 1.008c.25-.02 6.13-.51 8.544-2.923a8.878 8.878 0 0 0 1.785-2.53 2.647 2.647 0 0 0 1.63.112 32.979 32.979 0 0 0 4.552-1.548l.328.328c.1.759.217 3.081-1.665 4.964a.938.938 0 0 0 .663 1.6c3.71 0 8.898-2.21 10.809-5.78.83-1.55 1.394-4.003-.407-7.064.763-.645 1.5-1.32 2.193-2.014 3.096-3.096 5.526-7.103 7.223-11.91 2.12-6 2.324-11.047 2.331-11.259a.938.938 0 0 0-.274-.696ZM11.098 20.134c.582-2.818 2.274-5.911 4.569-7.14 1.533-.82 3.21-.74 4.992.236a37.906 37.906 0 0 0-3.939 6.42c-.014-.008-.183-.22-.496-.29-.129-.03-2.61-.564-5.126.774Zm6.133 14.613c-1.289 1.289-4.313 1.969-6.224 2.246.278-1.911.958-4.935 2.247-6.224.722-.722 1.559-1.27 2.4-1.577l3.155 3.154c-.309.842-.856 1.679-1.578 2.4Zm4.274-2.91c-.271.07-.585-.032-.819-.265a17420.51 17420.51 0 0 0-1.836-1.836l-2.421-2.421c-.234-.235-.336-.549-.267-.82.3-1.17.693-2.369 1.17-3.58l7.753 7.752a30.42 30.42 0 0 1-3.58 1.17Zm13.5.497c-1.228 2.294-4.32 3.986-7.139 4.568.899-1.69 1.097-3.843.769-5.148-.076-.304-.274-.456-.285-.474a37.92 37.92 0 0 0 6.42-3.939c.976 1.783 1.056 3.46.236 4.993Zm2.114-9.52a34.028 34.028 0 0 1-2.703 2.426 36.019 36.019 0 0 1-7.474 4.633l-8.814-8.815a36.013 36.013 0 0 1 4.632-7.473c.766-.95 1.582-1.86 2.426-2.704 2.778-2.778 6.362-4.988 10.657-6.58l7.855 7.856c-1.59 4.295-3.801 7.88-6.579 10.657Zm7.254-12.634L37.82 3.627a42.149 42.149 0 0 1 8.226-1.673 42.155 42.155 0 0 1-1.673 8.226Z"/><path d="M22.535 38.723a.938.938 0 0 0-1.326 0l-2.651 2.653a.938.938 0 0 0 1.326 1.325l2.651-2.652a.938.938 0 0 0 0-1.326ZM9.277 25.465a.938.938 0 0 0-1.326 0L5.3 28.116a.938.938 0 0 0 1.325 1.326l2.653-2.65a.938.938 0 0 0 0-1.327ZM15.906 40.05a.938.938 0 0 0-1.326 0L8.23 46.4a.937.937 0 1 0 1.325 1.326l6.35-6.35a.937.937 0 0 0 0-1.326ZM8.406 40.05a.938.938 0 0 0-1.326 0L.73 46.4a.937.937 0 1 0 1.325 1.326l6.35-6.35a.937.937 0 0 0 0-1.326ZM7.95 32.094a.938.938 0 0 0-1.326 0l-6.35 6.35a.938.938 0 0 0 1.327 1.327l6.35-6.35a.938.938 0 0 0 0-1.327ZM29.164 18.836a.938.938 0 0 0-1.326 0l-1.325 1.326a.938.938 0 0 0 1.325 1.326l1.326-1.326a.938.938 0 0 0 0-1.326Z"/></g></svg><svg viewBox="0 0 48 48" id="schedule" xmlns="http://www.w3.org/2000/svg"><defs><linearGradient x1="50%" y1="0%" x2="54.278%" y2="97.505%" id="sa"><stop stop-color="#2FBEFF" offset="0%"/><stop stop-color="#2930C3" offset="100%"/></linearGradient><path d="M78 86.4V88H30v-1.6h48zm-38.4-8a.8.8 0 0 1 .8.8V84a.8.8 0 0 1-.8.8H34a.8.8 0 0 1-.8-.8v-4.8a.8.8 0 0 1 .8-.8zm8.8-2.4a.8.8 0 0 1 .8.8V84a.8.8 0 0 1-.8.8h-5.6a.8.8 0 0 1-.8-.8v-7.2a.8.8 0 0 1 .8-.8zm8.8-4a.8.8 0 0 1 .8.8V84a.8.8 0 0 1-.8.8h-5.6a.8.8 0 0 1-.8-.8V72.8a.8.8 0 0 1 .8-.8zm8.8-5.6a.8.8 0 0 1 .8.8V84a.8.8 0 0 1-.8.8h-5.6a.8.8 0 0 1-.8-.8V67.2a.8.8 0 0 1 .8-.8zm8.8-11.2a.8.8 0 0 1 .8.8v28a.8.8 0 0 1-.8.8h-5.6a.8.8 0 0 1-.8-.8V56a.8.8 0 0 1 .8-.8zM38.8 80h-4v3.2h4V80zm8.8-2.4h-4v5.6h4v-5.6zm8.8-4h-4v9.6h4v-9.6zm8.8-5.6h-4v15.2h4V68zM74 56.8h-4v26.4h4V56.8zm-1.857-16.758a.8.8 0 0 1 .973.401l3.2 6.4a.8.8 0 1 1-1.432.715L72.53 42.85l-1.29 3.69A44.292 44.292 0 0 1 33.267 76l-.136-1.6a42.692 42.692 0 0 0 36.596-28.388l1.265-3.611-4.635 2.316a.8.8 0 0 1-.716-1.432l6.4-3.2zM41.2 54.4V56H34v-1.6h7.2zm0-3.2v1.6H34v-1.6h7.2zm3.2-3.2v1.6H34V48h10.4zm0-3.2v1.6H34v-1.6h10.4z" id="sb"/></defs><g transform="translate(-30 -40)" fill-rule="nonzero" fill="none"><use fill="url(#sa)" xlink:href="#sb"/><use fill="#2FBEFF" xlink:href="#sb"/></g></svg><svg viewBox="0 0 17 16" id="send" xmlns="http://www.w3.org/2000/svg"><path d="M16.648 7.44.863.055a.605.605 0 0 0-.727.173.619.619 0 0 0-.014.756l5.19 7.015-5.19 7.016a.62.62 0 0 0 .013.756.602.602 0 0 0 .726.172l15.786-7.385A.615.615 0 0 0 17 8a.616.616 0 0 0-.352-.558z" fill="#FFF" fill-rule="nonzero"/></svg><svg viewBox="0 0 24 24" id="tel" xmlns="http://www.w3.org/2000/svg"><path d="M17.249 24a6.687 6.687 0 0 1-2.294-.41 24.462 24.462 0 0 1-8.883-5.662A24.46 24.46 0 0 1 .41 9.045 6.638 6.638 0 0 1 .07 5.782a6.795 6.795 0 0 1 1.156-2.897A6.823 6.823 0 0 1 3.57.8C4.556.27 5.633 0 6.77 0a.75.75 0 0 1 .733.593L8.68 6.086a.75.75 0 0 1-.203.688L6.466 8.785a19.741 19.741 0 0 0 8.749 8.75l2.011-2.012a.75.75 0 0 1 .688-.203l5.493 1.177a.75.75 0 0 1 .593.733 6.683 6.683 0 0 1-.8 3.2 6.823 6.823 0 0 1-2.085 2.343 6.795 6.795 0 0 1-2.897 1.156 6.664 6.664 0 0 1-.97.071ZM6.17 1.533c-1.5.165-2.83.951-3.714 2.213a5.167 5.167 0 0 0-.636 4.787A22.748 22.748 0 0 0 15.467 22.18a5.167 5.167 0 0 0 4.787-.636 5.195 5.195 0 0 0 2.213-3.714l-4.469-.958-2.1 2.1a.75.75 0 0 1-.85.15 21.236 21.236 0 0 1-10.17-10.17.75.75 0 0 1 .15-.85l2.1-2.1-.958-4.47Z" fill="#2FBEFF" fill-rule="nonzero"/></svg><svg version="1.0" viewBox="0 0 225 225" id="telegram" xmlns="http://www.w3.org/2000/svg"><path d="m103.7 83.7-63.8 25.5.3 3.1c.3 3.2.3 3.2 17.3 8.7l16.9 5.6 6.2 19.4c3.4 10.7 6.7 20.2 7.3 21.2 2 3.2 5 1.9 12.9-5.5 4.2-3.9 8.7-8 9.8-9 2.2-1.8 2.4-1.7 20 11.2 18.4 13.5 21.6 15 23.4 10.9 1.6-3.6 25-104.7 25-108 0-4-4.8-8.8-8.7-8.7-1.5.1-31.5 11.6-66.6 25.6zm61.7-12.9c-1.1.9-17.6 15.6-36.6 32.6l-34.6 30.8-1.1 6.1c-.6 3.4-1.4 8.3-1.7 10.9-.4 2.7-1 4.8-1.3 4.8-1 0-9.1-30.4-8.3-31.2C82.9 123.7 166.4 69 167 69c.3.1-.4.8-1.6 1.8z"/></svg></svg>